<mxfile host="app.diagrams.net" modified="2022-12-06T03:45:43.661Z" agent="5.0 (Macintosh; Intel Mac OS X 10_15_7) AppleWebKit/537.36 (KHTML, like Gecko) Chrome/107.0.0.0 Safari/537.36" etag="_xr1Uf4uONyaY0AF6LAI" version="20.2.8" type="github">
  <diagram id="NfunrRq4cAARCLg332PT" name="第 1 页">
    <mxGraphModel dx="6304" dy="-5549" grid="0" gridSize="10" guides="1" tooltips="1" connect="1" arrows="1" fold="1" page="1" pageScale="1" pageWidth="4681" pageHeight="3300" math="0" shadow="0">
      <root>
        <mxCell id="0" />
        <mxCell id="1" parent="0" />
        <mxCell id="GG6Al1zUWWnjfLum0q8_-400" value="" style="rounded=0;whiteSpace=wrap;html=1;dashed=1;strokeColor=#0066CC;fillColor=none;fontStyle=1;fontSize=14;labelBackgroundColor=none;labelBorderColor=none;" vertex="1" parent="1">
          <mxGeometry x="-4381" y="14489" width="271.5" height="284" as="geometry" />
        </mxCell>
        <mxCell id="GG6Al1zUWWnjfLum0q8_-376" value="" style="rounded=0;whiteSpace=wrap;html=1;dashed=1;strokeColor=#0066CC;fillColor=none;fontStyle=1;fontSize=14;labelBackgroundColor=none;labelBorderColor=none;" vertex="1" parent="1">
          <mxGeometry x="-1262.52" y="12910.04" width="379.59" height="119" as="geometry" />
        </mxCell>
        <mxCell id="GG6Al1zUWWnjfLum0q8_-323" value="" style="rounded=0;whiteSpace=wrap;html=1;dashed=1;strokeColor=#0066CC;fillColor=none;fontStyle=1;fontSize=14;labelBackgroundColor=none;labelBorderColor=none;" vertex="1" parent="1">
          <mxGeometry x="-1734" y="12791" width="306" height="902" as="geometry" />
        </mxCell>
        <mxCell id="GG6Al1zUWWnjfLum0q8_-321" value="" style="rounded=0;whiteSpace=wrap;html=1;dashed=1;strokeColor=#990000;fillColor=none;fontStyle=1;fontSize=14;labelBackgroundColor=none;labelBorderColor=none;" vertex="1" parent="1">
          <mxGeometry x="-1674" y="12834" width="185" height="364" as="geometry" />
        </mxCell>
        <mxCell id="GG6Al1zUWWnjfLum0q8_-1" value="" style="rounded=0;whiteSpace=wrap;html=1;dashed=1;strokeColor=#0066CC;" vertex="1" parent="1">
          <mxGeometry x="-2868" y="9730.5" width="138" height="190.5" as="geometry" />
        </mxCell>
        <mxCell id="GG6Al1zUWWnjfLum0q8_-2" value="安全中心" style="text;html=1;strokeColor=none;fillColor=none;align=center;verticalAlign=middle;whiteSpace=wrap;rounded=0;" vertex="1" parent="1">
          <mxGeometry x="-2888" y="9727.5" width="104" height="30" as="geometry" />
        </mxCell>
        <mxCell id="GG6Al1zUWWnjfLum0q8_-3" style="edgeStyle=orthogonalEdgeStyle;rounded=0;orthogonalLoop=1;jettySize=auto;html=1;exitX=0.5;exitY=1;exitDx=0;exitDy=0;" edge="1" parent="1" source="GG6Al1zUWWnjfLum0q8_-5" target="GG6Al1zUWWnjfLum0q8_-7">
          <mxGeometry relative="1" as="geometry" />
        </mxCell>
        <mxCell id="GG6Al1zUWWnjfLum0q8_-4" value="半小时同步新增的&lt;br&gt;应用ID&lt;br&gt;产品ID属性" style="edgeLabel;html=1;align=center;verticalAlign=middle;resizable=0;points=[];" vertex="1" connectable="0" parent="GG6Al1zUWWnjfLum0q8_-3">
          <mxGeometry x="-0.072" y="2" relative="1" as="geometry">
            <mxPoint as="offset" />
          </mxGeometry>
        </mxCell>
        <mxCell id="GG6Al1zUWWnjfLum0q8_-5" value="" style="rounded=0;whiteSpace=wrap;html=1;dashed=1;strokeColor=#0066CC;" vertex="1" parent="1">
          <mxGeometry x="-2578" y="9545" width="224" height="520" as="geometry" />
        </mxCell>
        <mxCell id="GG6Al1zUWWnjfLum0q8_-6" value="ups应用组创建" style="text;html=1;strokeColor=none;fillColor=none;align=center;verticalAlign=middle;whiteSpace=wrap;rounded=0;" vertex="1" parent="1">
          <mxGeometry x="-2579" y="9545" width="104" height="30" as="geometry" />
        </mxCell>
        <mxCell id="GG6Al1zUWWnjfLum0q8_-7" value="" style="rounded=0;whiteSpace=wrap;html=1;dashed=1;strokeColor=#0066CC;fillColor=none;" vertex="1" parent="1">
          <mxGeometry x="-2577.5" y="10202" width="225" height="139.44" as="geometry" />
        </mxCell>
        <mxCell id="GG6Al1zUWWnjfLum0q8_-8" value="运维中心" style="text;html=1;strokeColor=none;fillColor=none;align=center;verticalAlign=middle;whiteSpace=wrap;rounded=0;strokeWidth=2;opacity=50;" vertex="1" parent="1">
          <mxGeometry x="-2579.5" y="10202.44" width="60" height="30" as="geometry" />
        </mxCell>
        <mxCell id="GG6Al1zUWWnjfLum0q8_-9" style="edgeStyle=orthogonalEdgeStyle;rounded=0;orthogonalLoop=1;jettySize=auto;html=1;exitX=1;exitY=0.5;exitDx=0;exitDy=0;entryX=0;entryY=0.5;entryDx=0;entryDy=0;" edge="1" parent="1" source="GG6Al1zUWWnjfLum0q8_-11" target="GG6Al1zUWWnjfLum0q8_-5">
          <mxGeometry relative="1" as="geometry" />
        </mxCell>
        <mxCell id="GG6Al1zUWWnjfLum0q8_-10" value="审批通过" style="edgeLabel;html=1;align=center;verticalAlign=middle;resizable=0;points=[];" vertex="1" connectable="0" parent="GG6Al1zUWWnjfLum0q8_-9">
          <mxGeometry x="-0.1058" y="3" relative="1" as="geometry">
            <mxPoint as="offset" />
          </mxGeometry>
        </mxCell>
        <mxCell id="GG6Al1zUWWnjfLum0q8_-11" value="应用组申请" style="rounded=0;whiteSpace=wrap;html=1;fillColor=#1ba1e2;fontColor=#ffffff;strokeColor=#006EAF;" vertex="1" parent="1">
          <mxGeometry x="-2840.75" y="9785.5" width="83.5" height="39" as="geometry" />
        </mxCell>
        <mxCell id="GG6Al1zUWWnjfLum0q8_-12" value="参数校验" style="rounded=0;whiteSpace=wrap;html=1;fillColor=#60a917;strokeColor=#2D7600;fontColor=#ffffff;" vertex="1" parent="1">
          <mxGeometry x="-2555" y="9594" width="178" height="39" as="geometry" />
        </mxCell>
        <mxCell id="GG6Al1zUWWnjfLum0q8_-13" value="补全应用组元数据标识后缀" style="rounded=0;whiteSpace=wrap;html=1;fillColor=#60a917;strokeColor=#2D7600;fontColor=#ffffff;" vertex="1" parent="1">
          <mxGeometry x="-2555" y="9652" width="178" height="39" as="geometry" />
        </mxCell>
        <mxCell id="GG6Al1zUWWnjfLum0q8_-14" value="补全查询bg下的 hive\hdfs\supersql\oms等" style="rounded=0;whiteSpace=wrap;html=1;fillColor=#60a917;strokeColor=#2D7600;fontColor=#ffffff;align=center;" vertex="1" parent="1">
          <mxGeometry x="-2555" y="9710" width="178" height="39" as="geometry" />
        </mxCell>
        <mxCell id="GG6Al1zUWWnjfLum0q8_-15" value="插入角色、用户表" style="rounded=0;whiteSpace=wrap;html=1;fillColor=#1ba1e2;strokeColor=#006EAF;fontColor=#ffffff;" vertex="1" parent="1">
          <mxGeometry x="-2555" y="9770" width="178" height="39" as="geometry" />
        </mxCell>
        <mxCell id="GG6Al1zUWWnjfLum0q8_-16" value="持久化应用组信息" style="rounded=0;whiteSpace=wrap;html=1;fillColor=#1ba1e2;strokeColor=#006EAF;fontColor=#ffffff;" vertex="1" parent="1">
          <mxGeometry x="-2555" y="9826" width="178" height="37" as="geometry" />
        </mxCell>
        <mxCell id="GG6Al1zUWWnjfLum0q8_-17" value="api创建默认资源池、spark资源池" style="rounded=0;whiteSpace=wrap;html=1;fillColor=#1ba1e2;strokeColor=#006EAF;fontColor=#ffffff;" vertex="1" parent="1">
          <mxGeometry x="-2555" y="9882" width="178" height="39" as="geometry" />
        </mxCell>
        <mxCell id="GG6Al1zUWWnjfLum0q8_-18" value="接入、应用库 path及db创建" style="rounded=0;whiteSpace=wrap;html=1;fillColor=#1ba1e2;strokeColor=#006EAF;fontColor=#ffffff;" vertex="1" parent="1">
          <mxGeometry x="-2555" y="9945" width="178" height="39" as="geometry" />
        </mxCell>
        <mxCell id="GG6Al1zUWWnjfLum0q8_-19" value="lhoste api 并发分组创建" style="rounded=0;whiteSpace=wrap;html=1;fillColor=#1ba1e2;strokeColor=#006EAF;fontColor=#ffffff;" vertex="1" parent="1">
          <mxGeometry x="-2555" y="10006" width="178" height="39" as="geometry" />
        </mxCell>
        <mxCell id="GG6Al1zUWWnjfLum0q8_-20" value="资源组" style="rounded=0;whiteSpace=wrap;html=1;fillColor=#1ba1e2;fontColor=#ffffff;strokeColor=#006EAF;" vertex="1" parent="1">
          <mxGeometry x="-2532" y="10258.44" width="134" height="34.5" as="geometry" />
        </mxCell>
        <mxCell id="GG6Al1zUWWnjfLum0q8_-21" style="edgeStyle=orthogonalEdgeStyle;rounded=0;orthogonalLoop=1;jettySize=auto;html=1;exitX=0.5;exitY=1;exitDx=0;exitDy=0;entryX=0;entryY=0.5;entryDx=0;entryDy=0;" edge="1" parent="1" source="GG6Al1zUWWnjfLum0q8_-23" target="GG6Al1zUWWnjfLum0q8_-7">
          <mxGeometry relative="1" as="geometry" />
        </mxCell>
        <mxCell id="GG6Al1zUWWnjfLum0q8_-22" value="&lt;span style=&quot;&quot;&gt;审批通过&lt;/span&gt;&lt;br style=&quot;&quot;&gt;&lt;span style=&quot;&quot;&gt;1、校验应用组是否存在&lt;/span&gt;&lt;br style=&quot;&quot;&gt;&lt;span style=&quot;&quot;&gt;2、校验产品ID-规划产品是否存在&lt;/span&gt;&lt;br style=&quot;&quot;&gt;&lt;span style=&quot;&quot;&gt;3、队列命名:&amp;nbsp;&lt;/span&gt;&lt;span style=&quot;color: rgb(32, 35, 40); font-family: -apple-system, &amp;quot;PingFang SC&amp;quot;, &amp;quot;Microsoft YaHei&amp;quot;, &amp;quot;Hiragino Sans GB&amp;quot;, &amp;quot;Source Han Sans SC&amp;quot;, &amp;quot;Helvetica Neue&amp;quot;, Helvetica, Arial, &amp;quot;Segoe UI&amp;quot;; font-size: 14px;&quot;&gt;root.BG.规划产品标识.应用组ID&lt;/span&gt;" style="edgeLabel;html=1;align=right;verticalAlign=middle;resizable=0;points=[];" vertex="1" connectable="0" parent="GG6Al1zUWWnjfLum0q8_-21">
          <mxGeometry x="-0.4301" y="1" relative="1" as="geometry">
            <mxPoint x="-8" y="6" as="offset" />
          </mxGeometry>
        </mxCell>
        <mxCell id="GG6Al1zUWWnjfLum0q8_-23" value="计算资源申请" style="rounded=0;whiteSpace=wrap;html=1;fillColor=#1ba1e2;fontColor=#ffffff;strokeColor=#006EAF;" vertex="1" parent="1">
          <mxGeometry x="-2840.75" y="9847" width="83.5" height="39" as="geometry" />
        </mxCell>
        <mxCell id="GG6Al1zUWWnjfLum0q8_-24" value="" style="rounded=0;whiteSpace=wrap;html=1;dashed=1;strokeColor=#0066CC;fillColor=none;" vertex="1" parent="1">
          <mxGeometry x="-2516" y="10693" width="296.5" height="516" as="geometry" />
        </mxCell>
        <mxCell id="GG6Al1zUWWnjfLum0q8_-25" value="wedata资源管理" style="text;html=1;strokeColor=none;fillColor=none;align=center;verticalAlign=middle;whiteSpace=wrap;rounded=0;" vertex="1" parent="1">
          <mxGeometry x="-2520" y="10695" width="104" height="30" as="geometry" />
        </mxCell>
        <mxCell id="GG6Al1zUWWnjfLum0q8_-26" value="" style="rounded=0;whiteSpace=wrap;html=1;dashed=1;strokeColor=#0066CC;fillColor=none;" vertex="1" parent="1">
          <mxGeometry x="-2857" y="11034" width="181" height="159" as="geometry" />
        </mxCell>
        <mxCell id="GG6Al1zUWWnjfLum0q8_-27" value="运维中心" style="text;html=1;strokeColor=none;fillColor=none;align=center;verticalAlign=middle;whiteSpace=wrap;rounded=0;strokeWidth=2;opacity=50;" vertex="1" parent="1">
          <mxGeometry x="-2859" y="11033" width="60" height="30" as="geometry" />
        </mxCell>
        <mxCell id="GG6Al1zUWWnjfLum0q8_-28" value="资源组" style="rounded=0;whiteSpace=wrap;html=1;fillColor=#1ba1e2;fontColor=#ffffff;strokeColor=#006EAF;" vertex="1" parent="1">
          <mxGeometry x="-2826" y="11097.75" width="134" height="34.5" as="geometry" />
        </mxCell>
        <mxCell id="GG6Al1zUWWnjfLum0q8_-29" value="" style="rounded=0;whiteSpace=wrap;html=1;dashed=1;strokeColor=#0066CC;" vertex="1" parent="1">
          <mxGeometry x="-2868.5" y="10739" width="192.5" height="164" as="geometry" />
        </mxCell>
        <mxCell id="GG6Al1zUWWnjfLum0q8_-30" value="元数据库" style="text;html=1;strokeColor=none;fillColor=none;align=center;verticalAlign=middle;whiteSpace=wrap;rounded=0;" vertex="1" parent="1">
          <mxGeometry x="-2892" y="10734" width="104" height="30" as="geometry" />
        </mxCell>
        <mxCell id="GG6Al1zUWWnjfLum0q8_-31" value="tdw库" style="rounded=0;whiteSpace=wrap;html=1;fillColor=#1ba1e2;fontColor=#ffffff;strokeColor=#006EAF;" vertex="1" parent="1">
          <mxGeometry x="-2841.25" y="10773" width="143.25" height="39" as="geometry" />
        </mxCell>
        <mxCell id="GG6Al1zUWWnjfLum0q8_-32" value="tdwpriv库" style="rounded=0;whiteSpace=wrap;html=1;fillColor=#1ba1e2;fontColor=#ffffff;strokeColor=#006EAF;" vertex="1" parent="1">
          <mxGeometry x="-2841.25" y="10839" width="145.25" height="38.5" as="geometry" />
        </mxCell>
        <mxCell id="GG6Al1zUWWnjfLum0q8_-33" value="" style="rounded=0;whiteSpace=wrap;html=1;dashed=1;strokeColor=#0066CC;" vertex="1" parent="1">
          <mxGeometry x="-2479" y="10747" width="218" height="150" as="geometry" />
        </mxCell>
        <mxCell id="GG6Al1zUWWnjfLum0q8_-34" value="" style="rounded=0;whiteSpace=wrap;html=1;dashed=1;strokeColor=#0066CC;fillColor=none;" vertex="1" parent="1">
          <mxGeometry x="-2479.38" y="10937" width="221.5" height="235" as="geometry" />
        </mxCell>
        <mxCell id="GG6Al1zUWWnjfLum0q8_-35" value="同步tdw.hdfs_hive_info" style="rounded=0;whiteSpace=wrap;html=1;fillColor=#60a917;fontColor=#ffffff;strokeColor=#2D7600;" vertex="1" parent="1">
          <mxGeometry x="-2458.38" y="10784" width="166.75" height="39" as="geometry" />
        </mxCell>
        <mxCell id="GG6Al1zUWWnjfLum0q8_-36" value="同步tdwpriv.idex_gaia_hive" style="rounded=0;whiteSpace=wrap;html=1;fillColor=#60a917;fontColor=#ffffff;strokeColor=#2D7600;" vertex="1" parent="1">
          <mxGeometry x="-2455.25" y="10846" width="166.75" height="39" as="geometry" />
        </mxCell>
        <mxCell id="GG6Al1zUWWnjfLum0q8_-37" value="同步数据" style="text;html=1;strokeColor=none;fillColor=none;align=center;verticalAlign=middle;whiteSpace=wrap;rounded=0;" vertex="1" parent="1">
          <mxGeometry x="-2500" y="10743" width="104" height="30" as="geometry" />
        </mxCell>
        <mxCell id="GG6Al1zUWWnjfLum0q8_-38" value="参数校验" style="rounded=0;whiteSpace=wrap;html=1;fillColor=#60a917;strokeColor=#2D7600;fontColor=#ffffff;" vertex="1" parent="1">
          <mxGeometry x="-2454.13" y="10986" width="178" height="39" as="geometry" />
        </mxCell>
        <mxCell id="GG6Al1zUWWnjfLum0q8_-39" value="补全应用组元数据标识后缀" style="rounded=0;whiteSpace=wrap;html=1;fillColor=#60a917;strokeColor=#2D7600;fontColor=#ffffff;" vertex="1" parent="1">
          <mxGeometry x="-2454.13" y="11044" width="178" height="39" as="geometry" />
        </mxCell>
        <mxCell id="GG6Al1zUWWnjfLum0q8_-40" value="补全查询bg下的 hive\hdfs\supersql\oms等" style="rounded=0;whiteSpace=wrap;html=1;fillColor=#60a917;strokeColor=#2D7600;fontColor=#ffffff;align=center;" vertex="1" parent="1">
          <mxGeometry x="-2454.13" y="11102" width="178" height="39" as="geometry" />
        </mxCell>
        <mxCell id="GG6Al1zUWWnjfLum0q8_-41" value="资源组创建" style="text;html=1;strokeColor=none;fillColor=none;align=center;verticalAlign=middle;whiteSpace=wrap;rounded=0;" vertex="1" parent="1">
          <mxGeometry x="-2485.88" y="10937" width="104" height="30" as="geometry" />
        </mxCell>
        <mxCell id="GG6Al1zUWWnjfLum0q8_-42" value="&lt;span style=&quot;font-size: 12px; background-color: rgb(248, 249, 250);&quot;&gt;&amp;nbsp;每天同步应用组负责人、成员信息&lt;/span&gt;&lt;br style=&quot;font-size: 12px; background-color: rgb(248, 249, 250);&quot;&gt;&lt;span style=&quot;font-size: 12px; background-color: rgb(248, 249, 250);&quot;&gt;(用于运维系统鉴权)&lt;/span&gt;" style="endArrow=classic;html=1;rounded=0;exitX=0.75;exitY=1;exitDx=0;exitDy=0;entryX=0;entryY=0.25;entryDx=0;entryDy=0;" edge="1" parent="1" source="GG6Al1zUWWnjfLum0q8_-1" target="GG6Al1zUWWnjfLum0q8_-7">
          <mxGeometry width="50" height="50" relative="1" as="geometry">
            <mxPoint x="-2533" y="10279" as="sourcePoint" />
            <mxPoint x="-2483" y="10229" as="targetPoint" />
          </mxGeometry>
        </mxCell>
        <mxCell id="GG6Al1zUWWnjfLum0q8_-43" value="" style="endArrow=classic;html=1;rounded=0;entryX=0;entryY=0.5;entryDx=0;entryDy=0;exitX=1;exitY=0.5;exitDx=0;exitDy=0;" edge="1" parent="1" source="GG6Al1zUWWnjfLum0q8_-29" target="GG6Al1zUWWnjfLum0q8_-33">
          <mxGeometry width="50" height="50" relative="1" as="geometry">
            <mxPoint x="-2667" y="10817" as="sourcePoint" />
            <mxPoint x="-2572.5" y="10829" as="targetPoint" />
          </mxGeometry>
        </mxCell>
        <mxCell id="GG6Al1zUWWnjfLum0q8_-44" value="直连元数据同步相关表数据" style="text;html=1;align=center;verticalAlign=middle;resizable=0;points=[];autosize=1;strokeColor=none;fillColor=none;" vertex="1" parent="1">
          <mxGeometry x="-2669" y="10795" width="162" height="26" as="geometry" />
        </mxCell>
        <mxCell id="GG6Al1zUWWnjfLum0q8_-45" value="" style="endArrow=classic;html=1;rounded=0;exitX=1;exitY=0.5;exitDx=0;exitDy=0;" edge="1" parent="1" source="GG6Al1zUWWnjfLum0q8_-26">
          <mxGeometry width="50" height="50" relative="1" as="geometry">
            <mxPoint x="-2527" y="10889" as="sourcePoint" />
            <mxPoint x="-2517" y="10943" as="targetPoint" />
          </mxGeometry>
        </mxCell>
        <mxCell id="GG6Al1zUWWnjfLum0q8_-46" value="&lt;div&gt;&lt;span style=&quot;font-size: 11px;&quot;&gt;1、api获取应用组ID、产品ID&lt;/span&gt;&lt;/div&gt;&lt;div&gt;&lt;span style=&quot;font-size: 11px;&quot;&gt;2、api获取资源组下成员列表&lt;/span&gt;&lt;/div&gt;" style="edgeLabel;html=1;align=left;verticalAlign=middle;resizable=0;points=[];" vertex="1" connectable="0" parent="GG6Al1zUWWnjfLum0q8_-45">
          <mxGeometry x="-0.081" y="2" relative="1" as="geometry">
            <mxPoint x="-122" y="-36" as="offset" />
          </mxGeometry>
        </mxCell>
        <mxCell id="GG6Al1zUWWnjfLum0q8_-47" value="资源组" style="rounded=0;whiteSpace=wrap;html=1;fillColor=#1ba1e2;fontColor=#ffffff;strokeColor=#006EAF;" vertex="1" parent="1">
          <mxGeometry x="-1056" y="9859" width="166.75" height="70" as="geometry" />
        </mxCell>
        <mxCell id="GG6Al1zUWWnjfLum0q8_-48" value="离线计算资源-01" style="rounded=0;whiteSpace=wrap;html=1;fillColor=#1ba1e2;fontColor=#ffffff;strokeColor=#006EAF;" vertex="1" parent="1">
          <mxGeometry x="-1307.75" y="10057" width="166.75" height="39" as="geometry" />
        </mxCell>
        <mxCell id="GG6Al1zUWWnjfLum0q8_-49" value="实时计算资源-01" style="rounded=0;whiteSpace=wrap;html=1;fillColor=#1ba1e2;fontColor=#ffffff;strokeColor=#006EAF;" vertex="1" parent="1">
          <mxGeometry x="-1056" y="10057" width="166.75" height="39" as="geometry" />
        </mxCell>
        <mxCell id="GG6Al1zUWWnjfLum0q8_-50" value="离线计算资源-02" style="rounded=0;whiteSpace=wrap;html=1;fillColor=#1ba1e2;fontColor=#ffffff;strokeColor=#006EAF;" vertex="1" parent="1">
          <mxGeometry x="-791" y="10057" width="166.75" height="39" as="geometry" />
        </mxCell>
        <mxCell id="GG6Al1zUWWnjfLum0q8_-51" value="用户组-01" style="rounded=0;whiteSpace=wrap;html=1;fillColor=#1ba1e2;fontColor=#ffffff;strokeColor=#006EAF;" vertex="1" parent="1">
          <mxGeometry x="-1173" y="10199" width="166.75" height="39" as="geometry" />
        </mxCell>
        <mxCell id="GG6Al1zUWWnjfLum0q8_-52" value="用户组-02" style="rounded=0;whiteSpace=wrap;html=1;fillColor=#1ba1e2;fontColor=#ffffff;strokeColor=#006EAF;" vertex="1" parent="1">
          <mxGeometry x="-791" y="10197" width="166.75" height="39" as="geometry" />
        </mxCell>
        <mxCell id="GG6Al1zUWWnjfLum0q8_-53" value="" style="endArrow=none;html=1;rounded=0;entryX=0.5;entryY=1;entryDx=0;entryDy=0;exitX=0.5;exitY=0;exitDx=0;exitDy=0;" edge="1" parent="1" source="GG6Al1zUWWnjfLum0q8_-48" target="GG6Al1zUWWnjfLum0q8_-47">
          <mxGeometry width="50" height="50" relative="1" as="geometry">
            <mxPoint x="-1122" y="10103" as="sourcePoint" />
            <mxPoint x="-1072" y="10053" as="targetPoint" />
          </mxGeometry>
        </mxCell>
        <mxCell id="GG6Al1zUWWnjfLum0q8_-54" value="" style="endArrow=none;html=1;rounded=0;entryX=0.5;entryY=1;entryDx=0;entryDy=0;exitX=0.5;exitY=0;exitDx=0;exitDy=0;" edge="1" parent="1" source="GG6Al1zUWWnjfLum0q8_-49" target="GG6Al1zUWWnjfLum0q8_-47">
          <mxGeometry width="50" height="50" relative="1" as="geometry">
            <mxPoint x="-1214.3749999999995" y="10067" as="sourcePoint" />
            <mxPoint x="-962.625" y="9939" as="targetPoint" />
          </mxGeometry>
        </mxCell>
        <mxCell id="GG6Al1zUWWnjfLum0q8_-55" value="" style="endArrow=none;html=1;rounded=0;entryX=0.5;entryY=1;entryDx=0;entryDy=0;exitX=0.5;exitY=0;exitDx=0;exitDy=0;" edge="1" parent="1" source="GG6Al1zUWWnjfLum0q8_-50" target="GG6Al1zUWWnjfLum0q8_-47">
          <mxGeometry width="50" height="50" relative="1" as="geometry">
            <mxPoint x="-1214.3749999999995" y="10067" as="sourcePoint" />
            <mxPoint x="-962.625" y="9939" as="targetPoint" />
          </mxGeometry>
        </mxCell>
        <mxCell id="GG6Al1zUWWnjfLum0q8_-56" value="" style="endArrow=none;html=1;rounded=0;entryX=0.5;entryY=1;entryDx=0;entryDy=0;exitX=0.5;exitY=0;exitDx=0;exitDy=0;" edge="1" parent="1" source="GG6Al1zUWWnjfLum0q8_-51" target="GG6Al1zUWWnjfLum0q8_-48">
          <mxGeometry width="50" height="50" relative="1" as="geometry">
            <mxPoint x="-1214.3749999999995" y="10067" as="sourcePoint" />
            <mxPoint x="-962.625" y="9939" as="targetPoint" />
          </mxGeometry>
        </mxCell>
        <mxCell id="GG6Al1zUWWnjfLum0q8_-57" value="" style="endArrow=none;html=1;rounded=0;entryX=0.5;entryY=1;entryDx=0;entryDy=0;exitX=0.5;exitY=0;exitDx=0;exitDy=0;" edge="1" parent="1" source="GG6Al1zUWWnjfLum0q8_-51" target="GG6Al1zUWWnjfLum0q8_-49">
          <mxGeometry width="50" height="50" relative="1" as="geometry">
            <mxPoint x="-1079.625" y="10209" as="sourcePoint" />
            <mxPoint x="-1214.3749999999995" y="10106" as="targetPoint" />
          </mxGeometry>
        </mxCell>
        <mxCell id="GG6Al1zUWWnjfLum0q8_-58" value="" style="endArrow=none;html=1;rounded=0;entryX=0.5;entryY=1;entryDx=0;entryDy=0;exitX=0.5;exitY=0;exitDx=0;exitDy=0;" edge="1" parent="1" source="GG6Al1zUWWnjfLum0q8_-52" target="GG6Al1zUWWnjfLum0q8_-50">
          <mxGeometry width="50" height="50" relative="1" as="geometry">
            <mxPoint x="-1079.625" y="10209" as="sourcePoint" />
            <mxPoint x="-962.625" y="10106" as="targetPoint" />
          </mxGeometry>
        </mxCell>
        <mxCell id="GG6Al1zUWWnjfLum0q8_-59" value="" style="rounded=0;whiteSpace=wrap;html=1;dashed=1;strokeColor=#0066CC;fillColor=none;" vertex="1" parent="1">
          <mxGeometry x="-1405" y="9826" width="878" height="448" as="geometry" />
        </mxCell>
        <mxCell id="GG6Al1zUWWnjfLum0q8_-60" value="资源模型" style="text;html=1;strokeColor=none;fillColor=none;align=center;verticalAlign=middle;whiteSpace=wrap;rounded=0;" vertex="1" parent="1">
          <mxGeometry x="-1421" y="9826" width="104" height="30" as="geometry" />
        </mxCell>
        <mxCell id="GG6Al1zUWWnjfLum0q8_-69" value="ups tdw \ tdwpriv db" style="rounded=0;whiteSpace=wrap;html=1;fillColor=#1ba1e2;fontColor=#ffffff;strokeColor=#006EAF;" vertex="1" parent="1">
          <mxGeometry x="-2992" y="11568" width="328" height="39" as="geometry" />
        </mxCell>
        <mxCell id="GG6Al1zUWWnjfLum0q8_-72" value="tdw运维中心" style="rounded=0;whiteSpace=wrap;html=1;fillColor=#1ba1e2;fontColor=#ffffff;strokeColor=#006EAF;" vertex="1" parent="1">
          <mxGeometry x="-2769" y="11471" width="100" height="39" as="geometry" />
        </mxCell>
        <mxCell id="GG6Al1zUWWnjfLum0q8_-73" value="ups" style="rounded=0;whiteSpace=wrap;html=1;fillColor=#1ba1e2;fontColor=#ffffff;strokeColor=#006EAF;" vertex="1" parent="1">
          <mxGeometry x="-2992" y="11471" width="94" height="39" as="geometry" />
        </mxCell>
        <mxCell id="GG6Al1zUWWnjfLum0q8_-74" value="安全中心" style="rounded=0;whiteSpace=wrap;html=1;fillColor=#1ba1e2;fontColor=#ffffff;strokeColor=#006EAF;" vertex="1" parent="1">
          <mxGeometry x="-2995" y="11374" width="322" height="39" as="geometry" />
        </mxCell>
        <mxCell id="GG6Al1zUWWnjfLum0q8_-78" value="" style="endArrow=classic;html=1;rounded=0;exitX=0.25;exitY=1;exitDx=0;exitDy=0;entryX=0.566;entryY=0.006;entryDx=0;entryDy=0;entryPerimeter=0;" edge="1" parent="1" target="GG6Al1zUWWnjfLum0q8_-73">
          <mxGeometry width="50" height="50" relative="1" as="geometry">
            <mxPoint x="-2938.9999999999995" y="11413" as="sourcePoint" />
            <mxPoint x="-2936.036" y="11471.975" as="targetPoint" />
          </mxGeometry>
        </mxCell>
        <mxCell id="GG6Al1zUWWnjfLum0q8_-86" value="应用组创建" style="edgeLabel;html=1;align=center;verticalAlign=middle;resizable=0;points=[];" vertex="1" connectable="0" parent="GG6Al1zUWWnjfLum0q8_-78">
          <mxGeometry x="-0.2724" relative="1" as="geometry">
            <mxPoint y="8" as="offset" />
          </mxGeometry>
        </mxCell>
        <mxCell id="GG6Al1zUWWnjfLum0q8_-79" value="申请\调配资源" style="endArrow=classic;html=1;rounded=0;" edge="1" parent="1" target="GG6Al1zUWWnjfLum0q8_-72">
          <mxGeometry width="50" height="50" relative="1" as="geometry">
            <mxPoint x="-2719" y="11415" as="sourcePoint" />
            <mxPoint x="-2928.7960000000003" y="11481.234" as="targetPoint" />
          </mxGeometry>
        </mxCell>
        <mxCell id="GG6Al1zUWWnjfLum0q8_-82" value="" style="endArrow=classic;html=1;rounded=0;exitX=0.75;exitY=1;exitDx=0;exitDy=0;entryX=0.5;entryY=0;entryDx=0;entryDy=0;" edge="1" parent="1" source="GG6Al1zUWWnjfLum0q8_-73" target="GG6Al1zUWWnjfLum0q8_-69">
          <mxGeometry width="50" height="50" relative="1" as="geometry">
            <mxPoint x="-2812" y="11482" as="sourcePoint" />
            <mxPoint x="-2880" y="11550" as="targetPoint" />
          </mxGeometry>
        </mxCell>
        <mxCell id="GG6Al1zUWWnjfLum0q8_-85" value="持久化应用组" style="edgeLabel;html=1;align=center;verticalAlign=middle;resizable=0;points=[];" vertex="1" connectable="0" parent="GG6Al1zUWWnjfLum0q8_-82">
          <mxGeometry x="-0.4972" y="-1" relative="1" as="geometry">
            <mxPoint x="27" y="7" as="offset" />
          </mxGeometry>
        </mxCell>
        <mxCell id="GG6Al1zUWWnjfLum0q8_-87" value="" style="endArrow=classic;html=1;rounded=0;exitX=1;exitY=0.5;exitDx=0;exitDy=0;entryX=0;entryY=0.5;entryDx=0;entryDy=0;" edge="1" parent="1" source="GG6Al1zUWWnjfLum0q8_-73" target="GG6Al1zUWWnjfLum0q8_-72">
          <mxGeometry width="50" height="50" relative="1" as="geometry">
            <mxPoint x="-2741" y="11632" as="sourcePoint" />
            <mxPoint x="-2691" y="11582" as="targetPoint" />
          </mxGeometry>
        </mxCell>
        <mxCell id="GG6Al1zUWWnjfLum0q8_-88" value="同步应用组\成员" style="edgeLabel;html=1;align=center;verticalAlign=middle;resizable=0;points=[];labelPosition=center;verticalLabelPosition=middle;" vertex="1" connectable="0" parent="GG6Al1zUWWnjfLum0q8_-87">
          <mxGeometry x="0.0571" y="1" relative="1" as="geometry">
            <mxPoint x="-6" y="1" as="offset" />
          </mxGeometry>
        </mxCell>
        <mxCell id="GG6Al1zUWWnjfLum0q8_-93" value="tdw运维中心" style="rounded=0;whiteSpace=wrap;html=1;fillColor=#1ba1e2;fontColor=#ffffff;strokeColor=#006EAF;" vertex="1" parent="1">
          <mxGeometry x="-2088" y="11460.13" width="100" height="63.87" as="geometry" />
        </mxCell>
        <mxCell id="GG6Al1zUWWnjfLum0q8_-94" value="Wedata资源管理" style="rounded=0;whiteSpace=wrap;html=1;fillColor=#60a917;fontColor=#ffffff;strokeColor=#2D7600;" vertex="1" parent="1">
          <mxGeometry x="-2394.63" y="11460.13" width="103" height="59.75" as="geometry" />
        </mxCell>
        <mxCell id="GG6Al1zUWWnjfLum0q8_-108" value="" style="endArrow=classic;html=1;rounded=0;entryX=0;entryY=0.25;entryDx=0;entryDy=0;" edge="1" parent="1" target="GG6Al1zUWWnjfLum0q8_-93">
          <mxGeometry width="50" height="50" relative="1" as="geometry">
            <mxPoint x="-2292" y="11475" as="sourcePoint" />
            <mxPoint x="-2127.13" y="11486.75" as="targetPoint" />
            <Array as="points" />
          </mxGeometry>
        </mxCell>
        <mxCell id="GG6Al1zUWWnjfLum0q8_-109" value="创建/调整资源" style="edgeLabel;html=1;align=center;verticalAlign=middle;resizable=0;points=[];" vertex="1" connectable="0" parent="GG6Al1zUWWnjfLum0q8_-108">
          <mxGeometry x="-0.1655" y="-1" relative="1" as="geometry">
            <mxPoint x="154" y="-229" as="offset" />
          </mxGeometry>
        </mxCell>
        <mxCell id="GG6Al1zUWWnjfLum0q8_-121" value="创建/调整资源" style="edgeLabel;html=1;align=center;verticalAlign=middle;resizable=0;points=[];" vertex="1" connectable="0" parent="GG6Al1zUWWnjfLum0q8_-108">
          <mxGeometry x="-0.3978" relative="1" as="geometry">
            <mxPoint x="29" y="-3" as="offset" />
          </mxGeometry>
        </mxCell>
        <mxCell id="GG6Al1zUWWnjfLum0q8_-110" value="安全中心" style="rounded=0;whiteSpace=wrap;html=1;fillColor=#1ba1e2;fontColor=#ffffff;strokeColor=#006EAF;" vertex="1" parent="1">
          <mxGeometry x="-2395.75" y="11368.25" width="406.75" height="39" as="geometry" />
        </mxCell>
        <mxCell id="GG6Al1zUWWnjfLum0q8_-111" value="" style="endArrow=classic;html=1;rounded=0;entryX=0.5;entryY=0;entryDx=0;entryDy=0;exitX=0.5;exitY=1;exitDx=0;exitDy=0;" edge="1" parent="1" source="GG6Al1zUWWnjfLum0q8_-110" target="GG6Al1zUWWnjfLum0q8_-94">
          <mxGeometry width="50" height="50" relative="1" as="geometry">
            <mxPoint x="-2410.25" y="11512.25" as="sourcePoint" />
            <mxPoint x="-2360.25" y="11462.25" as="targetPoint" />
          </mxGeometry>
        </mxCell>
        <mxCell id="GG6Al1zUWWnjfLum0q8_-112" value="纳管应用组" style="edgeLabel;html=1;align=center;verticalAlign=middle;resizable=0;points=[];" vertex="1" connectable="0" parent="GG6Al1zUWWnjfLum0q8_-111">
          <mxGeometry x="-0.0138" y="-1" relative="1" as="geometry">
            <mxPoint as="offset" />
          </mxGeometry>
        </mxCell>
        <mxCell id="GG6Al1zUWWnjfLum0q8_-114" value="元数据库" style="rounded=0;whiteSpace=wrap;html=1;fillColor=#1ba1e2;fontColor=#ffffff;strokeColor=#006EAF;" vertex="1" parent="1">
          <mxGeometry x="-2396" y="11573.75" width="408" height="39" as="geometry" />
        </mxCell>
        <mxCell id="GG6Al1zUWWnjfLum0q8_-115" value="" style="endArrow=classic;html=1;rounded=0;entryX=0.5;entryY=1;entryDx=0;entryDy=0;exitX=0.5;exitY=0;exitDx=0;exitDy=0;" edge="1" parent="1" source="GG6Al1zUWWnjfLum0q8_-114" target="GG6Al1zUWWnjfLum0q8_-94">
          <mxGeometry width="50" height="50" relative="1" as="geometry">
            <mxPoint x="-2131.25" y="11537.25" as="sourcePoint" />
            <mxPoint x="-2361.25" y="11643.25" as="targetPoint" />
          </mxGeometry>
        </mxCell>
        <mxCell id="GG6Al1zUWWnjfLum0q8_-116" value="同步元数据" style="edgeLabel;html=1;align=center;verticalAlign=middle;resizable=0;points=[];" vertex="1" connectable="0" parent="GG6Al1zUWWnjfLum0q8_-115">
          <mxGeometry x="0.2377" y="3" relative="1" as="geometry">
            <mxPoint x="10" y="4" as="offset" />
          </mxGeometry>
        </mxCell>
        <mxCell id="GG6Al1zUWWnjfLum0q8_-117" value="" style="endArrow=classic;html=1;rounded=0;entryX=0.5;entryY=1;entryDx=0;entryDy=0;exitX=0.25;exitY=0;exitDx=0;exitDy=0;" edge="1" parent="1" source="GG6Al1zUWWnjfLum0q8_-69" target="GG6Al1zUWWnjfLum0q8_-73">
          <mxGeometry width="50" height="50" relative="1" as="geometry">
            <mxPoint x="-2949" y="11587" as="sourcePoint" />
            <mxPoint x="-2747" y="11560" as="targetPoint" />
          </mxGeometry>
        </mxCell>
        <mxCell id="GG6Al1zUWWnjfLum0q8_-118" value="根据bg补全服务地址" style="edgeLabel;html=1;align=center;verticalAlign=middle;resizable=0;points=[];" vertex="1" connectable="0" parent="GG6Al1zUWWnjfLum0q8_-117">
          <mxGeometry x="-0.3164" y="2" relative="1" as="geometry">
            <mxPoint x="-3" y="5" as="offset" />
          </mxGeometry>
        </mxCell>
        <mxCell id="GG6Al1zUWWnjfLum0q8_-122" value="" style="endArrow=classic;html=1;rounded=0;exitX=0;exitY=0.75;exitDx=0;exitDy=0;entryX=1;entryY=0.75;entryDx=0;entryDy=0;" edge="1" parent="1" source="GG6Al1zUWWnjfLum0q8_-93" target="GG6Al1zUWWnjfLum0q8_-94">
          <mxGeometry width="50" height="50" relative="1" as="geometry">
            <mxPoint x="-2410" y="11489" as="sourcePoint" />
            <mxPoint x="-2360" y="11439" as="targetPoint" />
          </mxGeometry>
        </mxCell>
        <mxCell id="GG6Al1zUWWnjfLum0q8_-124" value="&lt;div&gt;&lt;span style=&quot;font-size: 11px;&quot;&gt;api获取应用组ID、产品ID&lt;/span&gt;&lt;/div&gt;&lt;div&gt;&lt;span style=&quot;font-size: 11px;&quot;&gt;api获取资源组下成员列表&lt;/span&gt;&lt;/div&gt;" style="edgeLabel;html=1;align=left;verticalAlign=middle;resizable=0;points=[];" vertex="1" connectable="0" parent="1">
          <mxGeometry x="-2251.999909501641" y="11506.998065906855" as="geometry" />
        </mxCell>
        <mxCell id="GG6Al1zUWWnjfLum0q8_-125" value="tdw运维中心" style="rounded=0;whiteSpace=wrap;html=1;fillColor=#1ba1e2;fontColor=#ffffff;strokeColor=#006EAF;" vertex="1" parent="1">
          <mxGeometry x="-2915" y="11871" width="78" height="310" as="geometry" />
        </mxCell>
        <mxCell id="GG6Al1zUWWnjfLum0q8_-129" value="" style="rounded=0;whiteSpace=wrap;html=1;dashed=1;strokeColor=#0066CC;fillColor=none;" vertex="1" parent="1">
          <mxGeometry x="-2690.75" y="12064" width="132" height="142" as="geometry" />
        </mxCell>
        <mxCell id="GG6Al1zUWWnjfLum0q8_-130" value="ups &lt;br&gt;tdw \ tdwpriv db" style="rounded=0;whiteSpace=wrap;html=1;fillColor=#1ba1e2;fontColor=#ffffff;strokeColor=#006EAF;" vertex="1" parent="1">
          <mxGeometry x="-2419.88" y="11854" width="73.88" height="332" as="geometry" />
        </mxCell>
        <mxCell id="GG6Al1zUWWnjfLum0q8_-134" value="" style="endArrow=classic;html=1;rounded=0;exitX=0;exitY=0.25;exitDx=0;exitDy=0;entryX=1.007;entryY=0.653;entryDx=0;entryDy=0;entryPerimeter=0;" edge="1" parent="1" source="GG6Al1zUWWnjfLum0q8_-129" target="GG6Al1zUWWnjfLum0q8_-125">
          <mxGeometry width="50" height="50" relative="1" as="geometry">
            <mxPoint x="-2629" y="11922" as="sourcePoint" />
            <mxPoint x="-2836" y="12076" as="targetPoint" />
          </mxGeometry>
        </mxCell>
        <mxCell id="GG6Al1zUWWnjfLum0q8_-135" value="申请\调配资源" style="edgeLabel;html=1;align=center;verticalAlign=middle;resizable=0;points=[];" vertex="1" connectable="0" parent="GG6Al1zUWWnjfLum0q8_-134">
          <mxGeometry x="0.1783" y="-2" relative="1" as="geometry">
            <mxPoint as="offset" />
          </mxGeometry>
        </mxCell>
        <mxCell id="GG6Al1zUWWnjfLum0q8_-136" value="" style="endArrow=classic;html=1;rounded=0;entryX=0;entryY=0.75;entryDx=0;entryDy=0;exitX=0.982;exitY=0.68;exitDx=0;exitDy=0;exitPerimeter=0;dashed=1;" edge="1" parent="1" source="GG6Al1zUWWnjfLum0q8_-125" target="GG6Al1zUWWnjfLum0q8_-129">
          <mxGeometry width="50" height="50" relative="1" as="geometry">
            <mxPoint x="-2835" y="12018" as="sourcePoint" />
            <mxPoint x="-2542" y="11960" as="targetPoint" />
          </mxGeometry>
        </mxCell>
        <mxCell id="GG6Al1zUWWnjfLum0q8_-137" value="同步应用组\成员" style="edgeLabel;html=1;align=center;verticalAlign=middle;resizable=0;points=[];" vertex="1" connectable="0" parent="GG6Al1zUWWnjfLum0q8_-136">
          <mxGeometry x="-0.3262" y="2" relative="1" as="geometry">
            <mxPoint x="24" y="12" as="offset" />
          </mxGeometry>
        </mxCell>
        <mxCell id="GG6Al1zUWWnjfLum0q8_-140" value="" style="endArrow=classic;html=1;rounded=0;entryX=0;entryY=0.75;entryDx=0;entryDy=0;" edge="1" parent="1" target="GG6Al1zUWWnjfLum0q8_-130">
          <mxGeometry width="50" height="50" relative="1" as="geometry">
            <mxPoint x="-2558" y="12158" as="sourcePoint" />
            <mxPoint x="-2443" y="12095" as="targetPoint" />
          </mxGeometry>
        </mxCell>
        <mxCell id="GG6Al1zUWWnjfLum0q8_-142" value="持久化应用组" style="edgeLabel;html=1;align=center;verticalAlign=middle;resizable=0;points=[];" vertex="1" connectable="0" parent="GG6Al1zUWWnjfLum0q8_-140">
          <mxGeometry x="0.078" y="-1" relative="1" as="geometry">
            <mxPoint x="-17" y="-4" as="offset" />
          </mxGeometry>
        </mxCell>
        <mxCell id="GG6Al1zUWWnjfLum0q8_-141" value="" style="endArrow=classic;html=1;rounded=0;entryX=0.997;entryY=0.863;entryDx=0;entryDy=0;exitX=0;exitY=0.75;exitDx=0;exitDy=0;entryPerimeter=0;" edge="1" parent="1" source="GG6Al1zUWWnjfLum0q8_-130" target="GG6Al1zUWWnjfLum0q8_-129">
          <mxGeometry width="50" height="50" relative="1" as="geometry">
            <mxPoint x="-2558.88" y="12225" as="sourcePoint" />
            <mxPoint x="-2442.88" y="12225" as="targetPoint" />
          </mxGeometry>
        </mxCell>
        <mxCell id="GG6Al1zUWWnjfLum0q8_-143" value="根据bg补全元数据" style="edgeLabel;html=1;align=center;verticalAlign=middle;resizable=0;points=[];" vertex="1" connectable="0" parent="GG6Al1zUWWnjfLum0q8_-141">
          <mxGeometry x="0.1255" y="-3" relative="1" as="geometry">
            <mxPoint x="13" y="9" as="offset" />
          </mxGeometry>
        </mxCell>
        <mxCell id="GG6Al1zUWWnjfLum0q8_-150" value="" style="rounded=0;whiteSpace=wrap;html=1;dashed=1;strokeColor=default;fillColor=none;" vertex="1" parent="1">
          <mxGeometry x="-2690.75" y="11831" width="132.5" height="126" as="geometry" />
        </mxCell>
        <mxCell id="GG6Al1zUWWnjfLum0q8_-151" value="同步数据" style="endArrow=classic;html=1;rounded=0;entryX=1;entryY=0.5;entryDx=0;entryDy=0;dashed=1;" edge="1" parent="1" target="GG6Al1zUWWnjfLum0q8_-150">
          <mxGeometry width="50" height="50" relative="1" as="geometry">
            <mxPoint x="-2422" y="12001" as="sourcePoint" />
            <mxPoint x="-2544" y="11872" as="targetPoint" />
          </mxGeometry>
        </mxCell>
        <mxCell id="GG6Al1zUWWnjfLum0q8_-152" value="" style="endArrow=classic;html=1;rounded=0;entryX=1;entryY=0.25;entryDx=0;entryDy=0;" edge="1" parent="1" target="GG6Al1zUWWnjfLum0q8_-125">
          <mxGeometry width="50" height="50" relative="1" as="geometry">
            <mxPoint x="-2691" y="11882" as="sourcePoint" />
            <mxPoint x="-2544" y="11807" as="targetPoint" />
          </mxGeometry>
        </mxCell>
        <mxCell id="GG6Al1zUWWnjfLum0q8_-153" value="" style="endArrow=classic;html=1;rounded=0;entryX=0;entryY=0.5;entryDx=0;entryDy=0;dashed=1;" edge="1" parent="1" source="GG6Al1zUWWnjfLum0q8_-125" target="GG6Al1zUWWnjfLum0q8_-150">
          <mxGeometry width="50" height="50" relative="1" as="geometry">
            <mxPoint x="-2594" y="11857" as="sourcePoint" />
            <mxPoint x="-2544" y="11807" as="targetPoint" />
          </mxGeometry>
        </mxCell>
        <mxCell id="GG6Al1zUWWnjfLum0q8_-154" value="&lt;span style=&quot;font-size: 11px; background-color: rgb(255, 255, 255);&quot;&gt;申请\调配资源&lt;/span&gt;" style="text;html=1;align=center;verticalAlign=middle;resizable=0;points=[];autosize=1;strokeColor=none;fillColor=none;" vertex="1" parent="1">
          <mxGeometry x="-2820" y="11915" width="93" height="26" as="geometry" />
        </mxCell>
        <mxCell id="GG6Al1zUWWnjfLum0q8_-155" value="&lt;div style=&quot;font-size: 11px; text-align: left;&quot;&gt;api获取资源组\成员&lt;br&gt;&lt;/div&gt;" style="text;html=1;align=center;verticalAlign=middle;resizable=0;points=[];autosize=1;strokeColor=none;fillColor=none;" vertex="1" parent="1">
          <mxGeometry x="-2829.13" y="11957" width="121" height="26" as="geometry" />
        </mxCell>
        <mxCell id="GG6Al1zUWWnjfLum0q8_-156" value="wedata" style="text;html=1;strokeColor=none;fillColor=none;align=center;verticalAlign=middle;whiteSpace=wrap;rounded=0;" vertex="1" parent="1">
          <mxGeometry x="-2722" y="11824" width="104" height="30" as="geometry" />
        </mxCell>
        <mxCell id="GG6Al1zUWWnjfLum0q8_-158" value="platform-gateway" style="rounded=0;whiteSpace=wrap;html=1;fillColor=#60a917;fontColor=#ffffff;strokeColor=#2D7600;" vertex="1" parent="1">
          <mxGeometry x="-2676.25" y="11859" width="103" height="37" as="geometry" />
        </mxCell>
        <mxCell id="GG6Al1zUWWnjfLum0q8_-162" value="安全中心" style="rounded=0;whiteSpace=wrap;html=1;fillColor=#1ba1e2;fontColor=#ffffff;strokeColor=#006EAF;" vertex="1" parent="1">
          <mxGeometry x="-2676.25" y="12085" width="103" height="40.75" as="geometry" />
        </mxCell>
        <mxCell id="GG6Al1zUWWnjfLum0q8_-164" value="ups" style="rounded=0;whiteSpace=wrap;html=1;fillColor=#1ba1e2;fontColor=#ffffff;strokeColor=#006EAF;" vertex="1" parent="1">
          <mxGeometry x="-2676.25" y="12151" width="103" height="39.75" as="geometry" />
        </mxCell>
        <mxCell id="GG6Al1zUWWnjfLum0q8_-169" value="纳管应用组" style="endArrow=classic;startArrow=classic;html=1;rounded=0;exitX=0.5;exitY=0;exitDx=0;exitDy=0;entryX=0.5;entryY=1;entryDx=0;entryDy=0;" edge="1" parent="1" source="GG6Al1zUWWnjfLum0q8_-129" target="GG6Al1zUWWnjfLum0q8_-150">
          <mxGeometry width="50" height="50" relative="1" as="geometry">
            <mxPoint x="-2530" y="12024" as="sourcePoint" />
            <mxPoint x="-2625" y="11963" as="targetPoint" />
            <Array as="points" />
          </mxGeometry>
        </mxCell>
        <mxCell id="GG6Al1zUWWnjfLum0q8_-182" value="资源管理" style="rounded=0;whiteSpace=wrap;html=1;fillColor=#60a917;fontColor=#ffffff;strokeColor=#2D7600;" vertex="1" parent="1">
          <mxGeometry x="-2676.25" y="11909.5" width="103" height="37" as="geometry" />
        </mxCell>
        <mxCell id="GG6Al1zUWWnjfLum0q8_-185" value="" style="rounded=0;whiteSpace=wrap;html=1;dashed=1;strokeColor=#0066CC;fillColor=none;" vertex="1" parent="1">
          <mxGeometry x="-3048.5" y="12536" width="321.5" height="243" as="geometry" />
        </mxCell>
        <mxCell id="GG6Al1zUWWnjfLum0q8_-186" value="" style="rounded=0;whiteSpace=wrap;html=1;dashed=1;strokeColor=#0066CC;fillColor=none;" vertex="1" parent="1">
          <mxGeometry x="-2557" y="12536" width="299.12" height="241" as="geometry" />
        </mxCell>
        <mxCell id="GG6Al1zUWWnjfLum0q8_-189" value="安全中心" style="rounded=0;whiteSpace=wrap;html=1;fillColor=#1ba1e2;fontColor=#ffffff;strokeColor=#006EAF;" vertex="1" parent="1">
          <mxGeometry x="-2455.25" y="12578" width="103" height="40.75" as="geometry" />
        </mxCell>
        <mxCell id="GG6Al1zUWWnjfLum0q8_-190" value="ups" style="rounded=0;whiteSpace=wrap;html=1;fillColor=#1ba1e2;fontColor=#ffffff;strokeColor=#006EAF;" vertex="1" parent="1">
          <mxGeometry x="-2455.5" y="12694" width="103" height="39.75" as="geometry" />
        </mxCell>
        <mxCell id="GG6Al1zUWWnjfLum0q8_-192" value="" style="rounded=0;whiteSpace=wrap;html=1;dashed=1;strokeColor=#0066CC;fillColor=none;" vertex="1" parent="1">
          <mxGeometry x="-3048.5" y="12404" width="796.5" height="86" as="geometry" />
        </mxCell>
        <mxCell id="GG6Al1zUWWnjfLum0q8_-196" value="资源管理" style="rounded=0;whiteSpace=wrap;html=1;fillColor=#60a917;fontColor=#ffffff;strokeColor=#2D7600;" vertex="1" parent="1">
          <mxGeometry x="-2854" y="12642" width="101.87" height="52" as="geometry" />
        </mxCell>
        <mxCell id="GG6Al1zUWWnjfLum0q8_-197" value="DB" style="rounded=0;whiteSpace=wrap;html=1;fillColor=#60a917;fontColor=#ffffff;strokeColor=#2D7600;" vertex="1" parent="1">
          <mxGeometry x="-3032" y="12548" width="62" height="207" as="geometry" />
        </mxCell>
        <mxCell id="GG6Al1zUWWnjfLum0q8_-199" value="" style="endArrow=classic;html=1;rounded=1;labelBackgroundColor=none;fontColor=none;exitX=0.5;exitY=0;exitDx=0;exitDy=0;entryX=0.5;entryY=1;entryDx=0;entryDy=0;strokeColor=#6666FF;" edge="1" parent="1" source="GG6Al1zUWWnjfLum0q8_-196" target="GG6Al1zUWWnjfLum0q8_-218">
          <mxGeometry width="50" height="50" relative="1" as="geometry">
            <mxPoint x="-2699" y="12590" as="sourcePoint" />
            <mxPoint x="-2649" y="12540" as="targetPoint" />
          </mxGeometry>
        </mxCell>
        <mxCell id="GG6Al1zUWWnjfLum0q8_-200" value="1.申请/调配资源" style="edgeLabel;html=1;align=center;verticalAlign=middle;resizable=0;points=[];fontColor=none;" vertex="1" connectable="0" parent="GG6Al1zUWWnjfLum0q8_-199">
          <mxGeometry x="0.0927" y="2" relative="1" as="geometry">
            <mxPoint as="offset" />
          </mxGeometry>
        </mxCell>
        <mxCell id="GG6Al1zUWWnjfLum0q8_-202" value="2.按bg模版创建资源组" style="endArrow=classic;html=1;rounded=1;labelBackgroundColor=none;fontColor=none;exitX=0.5;exitY=0;exitDx=0;exitDy=0;entryX=1.013;entryY=0.108;entryDx=0;entryDy=0;entryPerimeter=0;strokeColor=#6666FF;" edge="1" parent="1" source="GG6Al1zUWWnjfLum0q8_-196" target="GG6Al1zUWWnjfLum0q8_-197">
          <mxGeometry x="0.1061" width="50" height="50" relative="1" as="geometry">
            <mxPoint x="-2723" y="12590" as="sourcePoint" />
            <mxPoint x="-2673" y="12540" as="targetPoint" />
            <mxPoint as="offset" />
          </mxGeometry>
        </mxCell>
        <mxCell id="GG6Al1zUWWnjfLum0q8_-208" value="" style="endArrow=classic;html=1;rounded=1;labelBackgroundColor=none;fontColor=none;strokeColor=#6666FF;" edge="1" parent="1" source="GG6Al1zUWWnjfLum0q8_-219" target="GG6Al1zUWWnjfLum0q8_-196">
          <mxGeometry width="50" height="50" relative="1" as="geometry">
            <mxPoint x="-2849.374999999998" y="12852" as="sourcePoint" />
            <mxPoint x="-2673" y="12668" as="targetPoint" />
          </mxGeometry>
        </mxCell>
        <mxCell id="GG6Al1zUWWnjfLum0q8_-209" value="2.同步数据" style="edgeLabel;html=1;align=center;verticalAlign=middle;resizable=0;points=[];fontColor=none;" vertex="1" connectable="0" parent="GG6Al1zUWWnjfLum0q8_-208">
          <mxGeometry x="-0.4316" y="1" relative="1" as="geometry">
            <mxPoint x="-23" y="-32" as="offset" />
          </mxGeometry>
        </mxCell>
        <mxCell id="GG6Al1zUWWnjfLum0q8_-212" value="1.创建应用组" style="endArrow=classic;html=1;rounded=1;labelBackgroundColor=none;fontColor=none;exitX=0.5;exitY=1;exitDx=0;exitDy=0;strokeColor=#FFB366;" edge="1" parent="1" source="GG6Al1zUWWnjfLum0q8_-189" target="GG6Al1zUWWnjfLum0q8_-190">
          <mxGeometry width="50" height="50" relative="1" as="geometry">
            <mxPoint x="-2723" y="12645" as="sourcePoint" />
            <mxPoint x="-2673" y="12595" as="targetPoint" />
          </mxGeometry>
        </mxCell>
        <mxCell id="GG6Al1zUWWnjfLum0q8_-218" value="tdw运维中心" style="rounded=0;whiteSpace=wrap;html=1;fillColor=#1ba1e2;fontColor=#ffffff;strokeColor=#006EAF;" vertex="1" parent="1">
          <mxGeometry x="-3003.63" y="12421.5" width="689.75" height="51" as="geometry" />
        </mxCell>
        <mxCell id="GG6Al1zUWWnjfLum0q8_-219" value="" style="rounded=0;whiteSpace=wrap;html=1;dashed=1;strokeColor=#0066CC;fillColor=none;" vertex="1" parent="1">
          <mxGeometry x="-3048.5" y="12821" width="796.5" height="86" as="geometry" />
        </mxCell>
        <mxCell id="GG6Al1zUWWnjfLum0q8_-220" value="ups tdw \ tdwpriv db" style="rounded=0;whiteSpace=wrap;html=1;fillColor=#1ba1e2;fontColor=#ffffff;strokeColor=#006EAF;" vertex="1" parent="1">
          <mxGeometry x="-3003.63" y="12838.5" width="689.75" height="51" as="geometry" />
        </mxCell>
        <mxCell id="GG6Al1zUWWnjfLum0q8_-221" value="" style="endArrow=classic;html=1;rounded=1;labelBackgroundColor=none;fontColor=none;exitX=0;exitY=0.5;exitDx=0;exitDy=0;strokeColor=#FFB366;" edge="1" parent="1" source="GG6Al1zUWWnjfLum0q8_-189">
          <mxGeometry width="50" height="50" relative="1" as="geometry">
            <mxPoint x="-2796.065" y="12654" as="sourcePoint" />
            <mxPoint x="-2661" y="12473" as="targetPoint" />
          </mxGeometry>
        </mxCell>
        <mxCell id="GG6Al1zUWWnjfLum0q8_-222" value="3.申请/调配资源" style="edgeLabel;html=1;align=center;verticalAlign=middle;resizable=0;points=[];fontColor=none;" vertex="1" connectable="0" parent="GG6Al1zUWWnjfLum0q8_-221">
          <mxGeometry x="0.0927" y="2" relative="1" as="geometry">
            <mxPoint as="offset" />
          </mxGeometry>
        </mxCell>
        <mxCell id="GG6Al1zUWWnjfLum0q8_-223" value="" style="endArrow=classic;html=1;rounded=1;labelBackgroundColor=none;fontColor=none;entryX=0.5;entryY=0;entryDx=0;entryDy=0;exitX=0.5;exitY=1;exitDx=0;exitDy=0;strokeColor=#FFB366;" edge="1" parent="1" source="GG6Al1zUWWnjfLum0q8_-190" target="GG6Al1zUWWnjfLum0q8_-219">
          <mxGeometry width="50" height="50" relative="1" as="geometry">
            <mxPoint x="-2704" y="12653" as="sourcePoint" />
            <mxPoint x="-2654" y="12603" as="targetPoint" />
          </mxGeometry>
        </mxCell>
        <mxCell id="GG6Al1zUWWnjfLum0q8_-224" value="&lt;span style=&quot;background-color: rgb(248, 249, 250);&quot;&gt;2.按bg模版创建应用组&lt;/span&gt;" style="edgeLabel;html=1;align=center;verticalAlign=middle;resizable=0;points=[];fontColor=none;" vertex="1" connectable="0" parent="GG6Al1zUWWnjfLum0q8_-223">
          <mxGeometry x="-0.0256" y="-4" relative="1" as="geometry">
            <mxPoint x="6" y="4" as="offset" />
          </mxGeometry>
        </mxCell>
        <mxCell id="GG6Al1zUWWnjfLum0q8_-227" value="" style="endArrow=classic;html=1;rounded=1;labelBackgroundColor=none;fontColor=none;entryX=0.5;entryY=0;entryDx=0;entryDy=0;dashed=1;strokeColor=#000000;" edge="1" parent="1" target="GG6Al1zUWWnjfLum0q8_-186">
          <mxGeometry width="50" height="50" relative="1" as="geometry">
            <mxPoint x="-2656" y="12473" as="sourcePoint" />
            <mxPoint x="-2656" y="12617" as="targetPoint" />
          </mxGeometry>
        </mxCell>
        <mxCell id="GG6Al1zUWWnjfLum0q8_-228" value="同步应用组\成员" style="edgeLabel;html=1;align=center;verticalAlign=middle;resizable=0;points=[];fontColor=none;" vertex="1" connectable="0" parent="GG6Al1zUWWnjfLum0q8_-227">
          <mxGeometry x="-0.2597" y="1" relative="1" as="geometry">
            <mxPoint x="34" y="7" as="offset" />
          </mxGeometry>
        </mxCell>
        <mxCell id="GG6Al1zUWWnjfLum0q8_-229" value="" style="endArrow=classic;html=1;rounded=1;labelBackgroundColor=none;strokeColor=#B266FF;fontColor=none;entryX=1;entryY=0.5;entryDx=0;entryDy=0;exitX=0;exitY=0.5;exitDx=0;exitDy=0;" edge="1" parent="1" source="GG6Al1zUWWnjfLum0q8_-189" target="GG6Al1zUWWnjfLum0q8_-196">
          <mxGeometry width="50" height="50" relative="1" as="geometry">
            <mxPoint x="-2709" y="12705" as="sourcePoint" />
            <mxPoint x="-2659" y="12655" as="targetPoint" />
          </mxGeometry>
        </mxCell>
        <mxCell id="GG6Al1zUWWnjfLum0q8_-231" value="1.纳管应用组" style="edgeLabel;html=1;align=center;verticalAlign=middle;resizable=0;points=[];fontColor=none;" vertex="1" connectable="0" parent="GG6Al1zUWWnjfLum0q8_-229">
          <mxGeometry x="0.0164" y="-2" relative="1" as="geometry">
            <mxPoint as="offset" />
          </mxGeometry>
        </mxCell>
        <mxCell id="GG6Al1zUWWnjfLum0q8_-232" value="3.持久化纳管资源组&lt;br&gt;补全应用组元数据" style="endArrow=classic;html=1;rounded=1;labelBackgroundColor=none;strokeColor=#B266FF;fontColor=none;entryX=1;entryY=0.75;entryDx=0;entryDy=0;exitX=0;exitY=0.5;exitDx=0;exitDy=0;" edge="1" parent="1" source="GG6Al1zUWWnjfLum0q8_-196" target="GG6Al1zUWWnjfLum0q8_-197">
          <mxGeometry x="-0.0332" y="-3" width="50" height="50" relative="1" as="geometry">
            <mxPoint x="-2445.25" y="12608.375" as="sourcePoint" />
            <mxPoint x="-2742.13" y="12670.5" as="targetPoint" />
            <mxPoint as="offset" />
          </mxGeometry>
        </mxCell>
        <mxCell id="GG6Al1zUWWnjfLum0q8_-234" value="2.纳管应用组元数据" style="endArrow=classic;html=1;rounded=1;labelBackgroundColor=none;strokeColor=#B266FF;fontColor=none;exitX=0;exitY=0.5;exitDx=0;exitDy=0;" edge="1" parent="1" source="GG6Al1zUWWnjfLum0q8_-190" target="GG6Al1zUWWnjfLum0q8_-196">
          <mxGeometry width="50" height="50" relative="1" as="geometry">
            <mxPoint x="-2793.065" y="12689" as="sourcePoint" />
            <mxPoint x="-2630" y="12726" as="targetPoint" />
          </mxGeometry>
        </mxCell>
        <mxCell id="GG6Al1zUWWnjfLum0q8_-236" value="" style="endArrow=classic;html=1;rounded=1;labelBackgroundColor=none;fontColor=none;exitX=0.5;exitY=1;exitDx=0;exitDy=0;entryX=0.5;entryY=0;entryDx=0;entryDy=0;dashed=1;strokeColor=#000000;" edge="1" parent="1" source="GG6Al1zUWWnjfLum0q8_-218" target="GG6Al1zUWWnjfLum0q8_-185">
          <mxGeometry width="50" height="50" relative="1" as="geometry">
            <mxPoint x="-2851.109" y="12494" as="sourcePoint" />
            <mxPoint x="-2746.89" y="12540.86" as="targetPoint" />
          </mxGeometry>
        </mxCell>
        <mxCell id="GG6Al1zUWWnjfLum0q8_-237" value="&lt;span style=&quot;text-align: left; background-color: rgb(248, 249, 250);&quot;&gt;api获取资源组\成员&lt;/span&gt;" style="edgeLabel;html=1;align=center;verticalAlign=middle;resizable=0;points=[];fontColor=none;" vertex="1" connectable="0" parent="GG6Al1zUWWnjfLum0q8_-236">
          <mxGeometry x="-0.2597" y="1" relative="1" as="geometry">
            <mxPoint x="-64" y="7" as="offset" />
          </mxGeometry>
        </mxCell>
        <mxCell id="GG6Al1zUWWnjfLum0q8_-249" value="" style="rounded=0;whiteSpace=wrap;html=1;dashed=1;strokeColor=#0066CC;fillColor=none;" vertex="1" parent="1">
          <mxGeometry x="-3061" y="13181" width="321.5" height="243" as="geometry" />
        </mxCell>
        <mxCell id="GG6Al1zUWWnjfLum0q8_-250" value="" style="rounded=0;whiteSpace=wrap;html=1;dashed=1;strokeColor=#0066CC;fillColor=none;" vertex="1" parent="1">
          <mxGeometry x="-2569.5" y="13181" width="299.12" height="241" as="geometry" />
        </mxCell>
        <mxCell id="GG6Al1zUWWnjfLum0q8_-251" value="安全中心" style="rounded=0;whiteSpace=wrap;html=1;fillColor=#1ba1e2;fontColor=#ffffff;strokeColor=#006EAF;" vertex="1" parent="1">
          <mxGeometry x="-2467.75" y="13223" width="103" height="40.75" as="geometry" />
        </mxCell>
        <mxCell id="GG6Al1zUWWnjfLum0q8_-252" value="ups" style="rounded=0;whiteSpace=wrap;html=1;fillColor=#1ba1e2;fontColor=#ffffff;strokeColor=#006EAF;" vertex="1" parent="1">
          <mxGeometry x="-2468" y="13339" width="103" height="39.75" as="geometry" />
        </mxCell>
        <mxCell id="GG6Al1zUWWnjfLum0q8_-253" value="" style="rounded=0;whiteSpace=wrap;html=1;dashed=1;strokeColor=#0066CC;fillColor=none;" vertex="1" parent="1">
          <mxGeometry x="-3061" y="13049" width="796.5" height="86" as="geometry" />
        </mxCell>
        <mxCell id="GG6Al1zUWWnjfLum0q8_-254" value="资源管理" style="rounded=0;whiteSpace=wrap;html=1;fillColor=#60a917;fontColor=#ffffff;strokeColor=#2D7600;" vertex="1" parent="1">
          <mxGeometry x="-2866.5" y="13287" width="101.87" height="52" as="geometry" />
        </mxCell>
        <mxCell id="GG6Al1zUWWnjfLum0q8_-255" value="DB" style="rounded=0;whiteSpace=wrap;html=1;fillColor=#60a917;fontColor=#ffffff;strokeColor=#2D7600;" vertex="1" parent="1">
          <mxGeometry x="-3044.5" y="13193" width="62" height="207" as="geometry" />
        </mxCell>
        <mxCell id="GG6Al1zUWWnjfLum0q8_-256" value="" style="endArrow=classic;html=1;rounded=1;labelBackgroundColor=none;fontColor=none;exitX=0.5;exitY=0;exitDx=0;exitDy=0;entryX=0.5;entryY=1;entryDx=0;entryDy=0;strokeColor=#6666FF;" edge="1" parent="1" source="GG6Al1zUWWnjfLum0q8_-254" target="GG6Al1zUWWnjfLum0q8_-262">
          <mxGeometry width="50" height="50" relative="1" as="geometry">
            <mxPoint x="-2711.5" y="13235" as="sourcePoint" />
            <mxPoint x="-2661.5" y="13185" as="targetPoint" />
          </mxGeometry>
        </mxCell>
        <mxCell id="GG6Al1zUWWnjfLum0q8_-257" value="1.申请/调配资源" style="edgeLabel;html=1;align=center;verticalAlign=middle;resizable=0;points=[];fontColor=none;" vertex="1" connectable="0" parent="GG6Al1zUWWnjfLum0q8_-256">
          <mxGeometry x="0.0927" y="2" relative="1" as="geometry">
            <mxPoint as="offset" />
          </mxGeometry>
        </mxCell>
        <mxCell id="GG6Al1zUWWnjfLum0q8_-258" value="2.按bg模版创建资源组" style="endArrow=classic;html=1;rounded=1;labelBackgroundColor=none;fontColor=none;exitX=0.5;exitY=0;exitDx=0;exitDy=0;entryX=1.013;entryY=0.108;entryDx=0;entryDy=0;entryPerimeter=0;strokeColor=#6666FF;" edge="1" parent="1" source="GG6Al1zUWWnjfLum0q8_-254" target="GG6Al1zUWWnjfLum0q8_-255">
          <mxGeometry x="0.1061" width="50" height="50" relative="1" as="geometry">
            <mxPoint x="-2735.5" y="13235" as="sourcePoint" />
            <mxPoint x="-2685.5" y="13185" as="targetPoint" />
            <mxPoint as="offset" />
          </mxGeometry>
        </mxCell>
        <mxCell id="GG6Al1zUWWnjfLum0q8_-259" value="" style="endArrow=classic;html=1;rounded=1;labelBackgroundColor=none;fontColor=none;strokeColor=#6666FF;" edge="1" parent="1" source="GG6Al1zUWWnjfLum0q8_-263" target="GG6Al1zUWWnjfLum0q8_-254">
          <mxGeometry width="50" height="50" relative="1" as="geometry">
            <mxPoint x="-2861.874999999998" y="13497" as="sourcePoint" />
            <mxPoint x="-2685.5" y="13313" as="targetPoint" />
          </mxGeometry>
        </mxCell>
        <mxCell id="GG6Al1zUWWnjfLum0q8_-260" value="2.同步数据" style="edgeLabel;html=1;align=center;verticalAlign=middle;resizable=0;points=[];fontColor=none;" vertex="1" connectable="0" parent="GG6Al1zUWWnjfLum0q8_-259">
          <mxGeometry x="-0.4316" y="1" relative="1" as="geometry">
            <mxPoint x="-23" y="-32" as="offset" />
          </mxGeometry>
        </mxCell>
        <mxCell id="GG6Al1zUWWnjfLum0q8_-261" value="1.创建应用组" style="endArrow=classic;html=1;rounded=1;labelBackgroundColor=none;fontColor=none;exitX=0.5;exitY=1;exitDx=0;exitDy=0;strokeColor=#FFB366;" edge="1" parent="1" source="GG6Al1zUWWnjfLum0q8_-251" target="GG6Al1zUWWnjfLum0q8_-252">
          <mxGeometry width="50" height="50" relative="1" as="geometry">
            <mxPoint x="-2735.5" y="13290" as="sourcePoint" />
            <mxPoint x="-2685.5" y="13240" as="targetPoint" />
          </mxGeometry>
        </mxCell>
        <mxCell id="GG6Al1zUWWnjfLum0q8_-262" value="tdw运维中心" style="rounded=0;whiteSpace=wrap;html=1;fillColor=#1ba1e2;fontColor=#ffffff;strokeColor=#006EAF;" vertex="1" parent="1">
          <mxGeometry x="-3016.13" y="13066.5" width="689.75" height="51" as="geometry" />
        </mxCell>
        <mxCell id="GG6Al1zUWWnjfLum0q8_-263" value="" style="rounded=0;whiteSpace=wrap;html=1;dashed=1;strokeColor=#0066CC;fillColor=none;" vertex="1" parent="1">
          <mxGeometry x="-3061" y="13466" width="796.5" height="86" as="geometry" />
        </mxCell>
        <mxCell id="GG6Al1zUWWnjfLum0q8_-264" value="ups tdw \ tdwpriv db" style="rounded=0;whiteSpace=wrap;html=1;fillColor=#1ba1e2;fontColor=#ffffff;strokeColor=#006EAF;" vertex="1" parent="1">
          <mxGeometry x="-3016.13" y="13483.5" width="689.75" height="51" as="geometry" />
        </mxCell>
        <mxCell id="GG6Al1zUWWnjfLum0q8_-265" value="" style="endArrow=classic;html=1;rounded=1;labelBackgroundColor=none;fontColor=none;exitX=0;exitY=0.5;exitDx=0;exitDy=0;strokeColor=#FFB366;" edge="1" parent="1" source="GG6Al1zUWWnjfLum0q8_-251">
          <mxGeometry width="50" height="50" relative="1" as="geometry">
            <mxPoint x="-2808.565" y="13299" as="sourcePoint" />
            <mxPoint x="-2673.5" y="13118" as="targetPoint" />
          </mxGeometry>
        </mxCell>
        <mxCell id="GG6Al1zUWWnjfLum0q8_-266" value="3.申请/调配资源" style="edgeLabel;html=1;align=center;verticalAlign=middle;resizable=0;points=[];fontColor=none;" vertex="1" connectable="0" parent="GG6Al1zUWWnjfLum0q8_-265">
          <mxGeometry x="0.0927" y="2" relative="1" as="geometry">
            <mxPoint as="offset" />
          </mxGeometry>
        </mxCell>
        <mxCell id="GG6Al1zUWWnjfLum0q8_-267" value="" style="endArrow=classic;html=1;rounded=1;labelBackgroundColor=none;fontColor=none;entryX=0.5;entryY=0;entryDx=0;entryDy=0;exitX=0.5;exitY=1;exitDx=0;exitDy=0;strokeColor=#FFB366;" edge="1" parent="1" source="GG6Al1zUWWnjfLum0q8_-252" target="GG6Al1zUWWnjfLum0q8_-263">
          <mxGeometry width="50" height="50" relative="1" as="geometry">
            <mxPoint x="-2716.5" y="13298" as="sourcePoint" />
            <mxPoint x="-2666.5" y="13248" as="targetPoint" />
          </mxGeometry>
        </mxCell>
        <mxCell id="GG6Al1zUWWnjfLum0q8_-268" value="&lt;span style=&quot;background-color: rgb(248, 249, 250);&quot;&gt;2.按bg模版创建应用组&lt;/span&gt;" style="edgeLabel;html=1;align=center;verticalAlign=middle;resizable=0;points=[];fontColor=none;" vertex="1" connectable="0" parent="GG6Al1zUWWnjfLum0q8_-267">
          <mxGeometry x="-0.0256" y="-4" relative="1" as="geometry">
            <mxPoint x="6" y="4" as="offset" />
          </mxGeometry>
        </mxCell>
        <mxCell id="GG6Al1zUWWnjfLum0q8_-269" value="" style="endArrow=classic;html=1;rounded=1;labelBackgroundColor=none;fontColor=none;entryX=0.5;entryY=0;entryDx=0;entryDy=0;dashed=1;strokeColor=#000000;" edge="1" parent="1" target="GG6Al1zUWWnjfLum0q8_-250">
          <mxGeometry width="50" height="50" relative="1" as="geometry">
            <mxPoint x="-2668.5" y="13118" as="sourcePoint" />
            <mxPoint x="-2668.5" y="13262" as="targetPoint" />
          </mxGeometry>
        </mxCell>
        <mxCell id="GG6Al1zUWWnjfLum0q8_-270" value="同步应用组\成员" style="edgeLabel;html=1;align=center;verticalAlign=middle;resizable=0;points=[];fontColor=none;" vertex="1" connectable="0" parent="GG6Al1zUWWnjfLum0q8_-269">
          <mxGeometry x="-0.2597" y="1" relative="1" as="geometry">
            <mxPoint x="34" y="7" as="offset" />
          </mxGeometry>
        </mxCell>
        <mxCell id="GG6Al1zUWWnjfLum0q8_-271" value="" style="endArrow=classic;html=1;rounded=1;labelBackgroundColor=none;strokeColor=#B266FF;fontColor=none;entryX=1;entryY=0.5;entryDx=0;entryDy=0;exitX=0;exitY=0.5;exitDx=0;exitDy=0;" edge="1" parent="1" source="GG6Al1zUWWnjfLum0q8_-251" target="GG6Al1zUWWnjfLum0q8_-254">
          <mxGeometry width="50" height="50" relative="1" as="geometry">
            <mxPoint x="-2721.5" y="13350" as="sourcePoint" />
            <mxPoint x="-2671.5" y="13300" as="targetPoint" />
          </mxGeometry>
        </mxCell>
        <mxCell id="GG6Al1zUWWnjfLum0q8_-272" value="1.纳管应用组" style="edgeLabel;html=1;align=center;verticalAlign=middle;resizable=0;points=[];fontColor=none;" vertex="1" connectable="0" parent="GG6Al1zUWWnjfLum0q8_-271">
          <mxGeometry x="0.0164" y="-2" relative="1" as="geometry">
            <mxPoint as="offset" />
          </mxGeometry>
        </mxCell>
        <mxCell id="GG6Al1zUWWnjfLum0q8_-273" value="3.持久化纳管资源组&lt;br&gt;补全应用组元数据" style="endArrow=classic;html=1;rounded=1;labelBackgroundColor=none;strokeColor=#B266FF;fontColor=none;entryX=1;entryY=0.75;entryDx=0;entryDy=0;exitX=0;exitY=0.5;exitDx=0;exitDy=0;" edge="1" parent="1" source="GG6Al1zUWWnjfLum0q8_-254" target="GG6Al1zUWWnjfLum0q8_-255">
          <mxGeometry x="-0.0332" y="-3" width="50" height="50" relative="1" as="geometry">
            <mxPoint x="-2457.75" y="13253.375" as="sourcePoint" />
            <mxPoint x="-2754.63" y="13315.5" as="targetPoint" />
            <mxPoint as="offset" />
          </mxGeometry>
        </mxCell>
        <mxCell id="GG6Al1zUWWnjfLum0q8_-274" value="2.纳管应用组元数据" style="endArrow=classic;html=1;rounded=1;labelBackgroundColor=none;strokeColor=#B266FF;fontColor=none;exitX=0;exitY=0.5;exitDx=0;exitDy=0;" edge="1" parent="1" source="GG6Al1zUWWnjfLum0q8_-252" target="GG6Al1zUWWnjfLum0q8_-254">
          <mxGeometry width="50" height="50" relative="1" as="geometry">
            <mxPoint x="-2805.565" y="13334" as="sourcePoint" />
            <mxPoint x="-2642.5" y="13371" as="targetPoint" />
          </mxGeometry>
        </mxCell>
        <mxCell id="GG6Al1zUWWnjfLum0q8_-275" value="" style="endArrow=classic;html=1;rounded=1;labelBackgroundColor=none;fontColor=none;exitX=0.5;exitY=1;exitDx=0;exitDy=0;entryX=0.5;entryY=0;entryDx=0;entryDy=0;dashed=1;strokeColor=#000000;" edge="1" parent="1" source="GG6Al1zUWWnjfLum0q8_-262" target="GG6Al1zUWWnjfLum0q8_-249">
          <mxGeometry width="50" height="50" relative="1" as="geometry">
            <mxPoint x="-2863.609" y="13139" as="sourcePoint" />
            <mxPoint x="-2759.39" y="13185.86" as="targetPoint" />
          </mxGeometry>
        </mxCell>
        <mxCell id="GG6Al1zUWWnjfLum0q8_-276" value="&lt;span style=&quot;text-align: left; background-color: rgb(248, 249, 250);&quot;&gt;api获取资源组\成员&lt;/span&gt;" style="edgeLabel;html=1;align=center;verticalAlign=middle;resizable=0;points=[];fontColor=none;" vertex="1" connectable="0" parent="GG6Al1zUWWnjfLum0q8_-275">
          <mxGeometry x="-0.2597" y="1" relative="1" as="geometry">
            <mxPoint x="-64" y="7" as="offset" />
          </mxGeometry>
        </mxCell>
        <mxCell id="GG6Al1zUWWnjfLum0q8_-277" value="wedata控制台" style="rounded=0;whiteSpace=wrap;html=1;fillColor=#60a917;fontColor=#ffffff;strokeColor=#2D7600;fontStyle=1;fontSize=14;labelBackgroundColor=none;labelBorderColor=none;" vertex="1" parent="1">
          <mxGeometry x="-1632" y="12894.5" width="101.87" height="52" as="geometry" />
        </mxCell>
        <mxCell id="GG6Al1zUWWnjfLum0q8_-278" value="资源管理" style="rounded=0;whiteSpace=wrap;html=1;fillColor=#60a917;fontColor=#ffffff;strokeColor=#2D7600;fontStyle=1;fontSize=14;labelBackgroundColor=none;labelBorderColor=none;" vertex="1" parent="1">
          <mxGeometry x="-1632" y="13091" width="101.87" height="52" as="geometry" />
        </mxCell>
        <mxCell id="GG6Al1zUWWnjfLum0q8_-324" value="" style="rounded=0;whiteSpace=wrap;html=1;dashed=1;strokeColor=#990000;fillColor=none;fontStyle=1;fontSize=14;labelBackgroundColor=none;labelBorderColor=none;" vertex="1" parent="1">
          <mxGeometry x="-1674" y="13292" width="186" height="364" as="geometry" />
        </mxCell>
        <mxCell id="GG6Al1zUWWnjfLum0q8_-285" value="" style="endArrow=classic;html=1;rounded=1;labelBackgroundColor=none;strokeColor=#67AB9F;fontColor=none;entryX=0;entryY=0;entryDx=0;entryDy=0;exitX=1;exitY=0.5;exitDx=0;exitDy=0;fontStyle=1;fontSize=14;labelBorderColor=none;" edge="1" parent="1" source="GG6Al1zUWWnjfLum0q8_-277" target="GG6Al1zUWWnjfLum0q8_-329">
          <mxGeometry width="50" height="50" relative="1" as="geometry">
            <mxPoint x="-1773" y="12884" as="sourcePoint" />
            <mxPoint x="-1291" y="12920.5" as="targetPoint" />
          </mxGeometry>
        </mxCell>
        <mxCell id="GG6Al1zUWWnjfLum0q8_-288" value="2.提交申请/调配资源审批" style="edgeLabel;html=1;align=center;verticalAlign=middle;resizable=0;points=[];fontColor=#67AB9F;fontStyle=1;fontSize=14;labelBackgroundColor=none;labelBorderColor=none;" vertex="1" connectable="0" parent="GG6Al1zUWWnjfLum0q8_-285">
          <mxGeometry x="-0.245" y="-2" relative="1" as="geometry">
            <mxPoint x="-66" y="-94" as="offset" />
          </mxGeometry>
        </mxCell>
        <mxCell id="GG6Al1zUWWnjfLum0q8_-286" value="" style="endArrow=classic;html=1;rounded=1;labelBackgroundColor=none;strokeColor=#67AB9F;fontColor=none;entryX=0.5;entryY=0;entryDx=0;entryDy=0;exitX=0.5;exitY=1;exitDx=0;exitDy=0;fontStyle=1;fontSize=14;labelBorderColor=none;" edge="1" parent="1" source="GG6Al1zUWWnjfLum0q8_-277" target="GG6Al1zUWWnjfLum0q8_-278">
          <mxGeometry width="50" height="50" relative="1" as="geometry">
            <mxPoint x="-1773" y="12884" as="sourcePoint" />
            <mxPoint x="-1723" y="12834" as="targetPoint" />
          </mxGeometry>
        </mxCell>
        <mxCell id="GG6Al1zUWWnjfLum0q8_-290" value="1.创建默认资源组" style="edgeLabel;html=1;align=center;verticalAlign=middle;resizable=0;points=[];fontColor=#67AB9F;fontStyle=1;fontSize=14;labelBackgroundColor=none;labelBorderColor=none;" vertex="1" connectable="0" parent="GG6Al1zUWWnjfLum0q8_-286">
          <mxGeometry x="-0.2002" y="-2" relative="1" as="geometry">
            <mxPoint y="1" as="offset" />
          </mxGeometry>
        </mxCell>
        <mxCell id="GG6Al1zUWWnjfLum0q8_-328" value="" style="rounded=0;whiteSpace=wrap;html=1;dashed=1;strokeColor=#0066CC;fillColor=none;fontStyle=1;fontSize=14;labelBackgroundColor=none;labelBorderColor=none;" vertex="1" parent="1">
          <mxGeometry x="-1260.75" y="13215" width="379.92" height="361" as="geometry" />
        </mxCell>
        <mxCell id="GG6Al1zUWWnjfLum0q8_-289" value="3.申请/调配资源" style="endArrow=classic;html=1;rounded=1;labelBackgroundColor=none;strokeColor=#67AB9F;fontColor=#67AB9F;entryX=0;entryY=0.75;entryDx=0;entryDy=0;exitX=0.5;exitY=0;exitDx=0;exitDy=0;fontStyle=1;fontSize=14;labelBorderColor=none;" edge="1" parent="1" source="GG6Al1zUWWnjfLum0q8_-278" target="GG6Al1zUWWnjfLum0q8_-376">
          <mxGeometry x="-0.4477" width="50" height="50" relative="1" as="geometry">
            <mxPoint x="-1531" y="13126" as="sourcePoint" />
            <mxPoint x="-1296.75" y="13122.5" as="targetPoint" />
            <mxPoint x="1" as="offset" />
          </mxGeometry>
        </mxCell>
        <mxCell id="GG6Al1zUWWnjfLum0q8_-293" value="" style="endArrow=classic;html=1;rounded=1;labelBackgroundColor=none;strokeColor=#67AB9F;fontColor=none;entryX=1;entryY=0.5;entryDx=0;entryDy=0;exitX=0;exitY=0.5;exitDx=0;exitDy=0;strokeWidth=1;fontStyle=1;dashed=1;fontSize=14;labelBorderColor=none;" edge="1" parent="1" source="GG6Al1zUWWnjfLum0q8_-335" target="GG6Al1zUWWnjfLum0q8_-278">
          <mxGeometry width="50" height="50" relative="1" as="geometry">
            <mxPoint x="-1206" y="13128" as="sourcePoint" />
            <mxPoint x="-1581" y="13090" as="targetPoint" />
          </mxGeometry>
        </mxCell>
        <mxCell id="GG6Al1zUWWnjfLum0q8_-294" value="同步元数据" style="edgeLabel;html=1;align=center;verticalAlign=middle;resizable=0;points=[];fontColor=#67AB9F;fontStyle=1;fontSize=14;labelBackgroundColor=none;labelBorderColor=none;" vertex="1" connectable="0" parent="GG6Al1zUWWnjfLum0q8_-293">
          <mxGeometry x="-0.1835" y="3" relative="1" as="geometry">
            <mxPoint x="-127" y="-132" as="offset" />
          </mxGeometry>
        </mxCell>
        <mxCell id="GG6Al1zUWWnjfLum0q8_-315" value="默认资源组" style="text;html=1;strokeColor=none;fillColor=none;align=center;verticalAlign=middle;whiteSpace=wrap;rounded=0;strokeWidth=2;opacity=50;fontStyle=1;fontSize=14;labelBackgroundColor=none;labelBorderColor=none;" vertex="1" parent="1">
          <mxGeometry x="-1687" y="12834" width="107" height="30" as="geometry" />
        </mxCell>
        <mxCell id="GG6Al1zUWWnjfLum0q8_-296" value="wedata控制台" style="rounded=0;whiteSpace=wrap;html=1;fillColor=#60a917;fontColor=#ffffff;strokeColor=#2D7600;fontStyle=1;fontSize=14;labelBackgroundColor=none;labelBorderColor=none;" vertex="1" parent="1">
          <mxGeometry x="-1625" y="13356.25" width="101.87" height="52" as="geometry" />
        </mxCell>
        <mxCell id="GG6Al1zUWWnjfLum0q8_-297" value="资源管理" style="rounded=0;whiteSpace=wrap;html=1;fillColor=#60a917;fontColor=#ffffff;strokeColor=#2D7600;fontStyle=1;fontSize=14;labelBackgroundColor=none;labelBorderColor=none;" vertex="1" parent="1">
          <mxGeometry x="-1625" y="13547.75" width="101.87" height="52" as="geometry" />
        </mxCell>
        <mxCell id="GG6Al1zUWWnjfLum0q8_-303" value="" style="endArrow=classic;html=1;rounded=1;labelBackgroundColor=none;strokeColor=#7EA6E0;fontColor=none;entryX=0.5;entryY=0;entryDx=0;entryDy=0;exitX=0.5;exitY=1;exitDx=0;exitDy=0;fontStyle=1;fontSize=14;labelBorderColor=none;" edge="1" parent="1" source="GG6Al1zUWWnjfLum0q8_-296" target="GG6Al1zUWWnjfLum0q8_-297">
          <mxGeometry width="50" height="50" relative="1" as="geometry">
            <mxPoint x="-990" y="12887.75" as="sourcePoint" />
            <mxPoint x="-940" y="12837.75" as="targetPoint" />
          </mxGeometry>
        </mxCell>
        <mxCell id="GG6Al1zUWWnjfLum0q8_-304" value="3.创建纳管资源组&lt;br style=&quot;font-size: 14px;&quot;&gt;绑定资源关系" style="edgeLabel;html=1;align=center;verticalAlign=middle;resizable=0;points=[];fontColor=#7EA6E0;fontStyle=1;fontSize=14;labelBackgroundColor=none;labelBorderColor=none;" vertex="1" connectable="0" parent="GG6Al1zUWWnjfLum0q8_-303">
          <mxGeometry x="-0.2002" y="-2" relative="1" as="geometry">
            <mxPoint x="-2" y="10" as="offset" />
          </mxGeometry>
        </mxCell>
        <mxCell id="GG6Al1zUWWnjfLum0q8_-309" value="" style="endArrow=classic;html=1;rounded=1;labelBackgroundColor=none;strokeColor=#7EA6E0;fontColor=none;exitX=0;exitY=0.5;exitDx=0;exitDy=0;entryX=1;entryY=0.5;entryDx=0;entryDy=0;fontStyle=1;fontSize=14;labelBorderColor=none;" edge="1" parent="1" source="GG6Al1zUWWnjfLum0q8_-329" target="GG6Al1zUWWnjfLum0q8_-296">
          <mxGeometry width="50" height="50" relative="1" as="geometry">
            <mxPoint x="-1281" y="13383.75" as="sourcePoint" />
            <mxPoint x="-891" y="12950.25" as="targetPoint" />
          </mxGeometry>
        </mxCell>
        <mxCell id="GG6Al1zUWWnjfLum0q8_-310" value="1.纳管应用组" style="edgeLabel;html=1;align=center;verticalAlign=middle;resizable=0;points=[];fontColor=#7EA6E0;fontStyle=1;fontSize=14;labelBackgroundColor=none;labelBorderColor=none;" vertex="1" connectable="0" parent="GG6Al1zUWWnjfLum0q8_-309">
          <mxGeometry x="0.1972" y="-4" relative="1" as="geometry">
            <mxPoint x="-65" y="17" as="offset" />
          </mxGeometry>
        </mxCell>
        <mxCell id="GG6Al1zUWWnjfLum0q8_-312" value="" style="endArrow=classic;html=1;rounded=1;labelBackgroundColor=none;strokeColor=#7EA6E0;fontColor=none;exitX=0.005;exitY=0.631;exitDx=0;exitDy=0;exitPerimeter=0;fontStyle=1;fontSize=14;labelBorderColor=none;" edge="1" parent="1" source="GG6Al1zUWWnjfLum0q8_-335" target="GG6Al1zUWWnjfLum0q8_-297">
          <mxGeometry width="50" height="50" relative="1" as="geometry">
            <mxPoint x="-1281" y="13573.75" as="sourcePoint" />
            <mxPoint x="-1554" y="13550.25" as="targetPoint" />
          </mxGeometry>
        </mxCell>
        <mxCell id="GG6Al1zUWWnjfLum0q8_-313" value="2.补全元数据" style="edgeLabel;html=1;align=center;verticalAlign=middle;resizable=0;points=[];fontColor=#7EA6E0;fontStyle=1;fontSize=14;labelBackgroundColor=none;labelBorderColor=none;" vertex="1" connectable="0" parent="GG6Al1zUWWnjfLum0q8_-312">
          <mxGeometry x="0.1972" y="-4" relative="1" as="geometry">
            <mxPoint x="-63" y="24" as="offset" />
          </mxGeometry>
        </mxCell>
        <mxCell id="GG6Al1zUWWnjfLum0q8_-317" value="纳管应用组" style="text;html=1;strokeColor=none;fillColor=none;align=center;verticalAlign=middle;whiteSpace=wrap;rounded=0;strokeWidth=2;opacity=50;fontStyle=1;fontSize=14;labelBackgroundColor=none;labelBorderColor=none;" vertex="1" parent="1">
          <mxGeometry x="-1683" y="13297.25" width="91" height="30" as="geometry" />
        </mxCell>
        <mxCell id="GG6Al1zUWWnjfLum0q8_-325" value="wedata" style="text;html=1;strokeColor=none;fillColor=none;align=center;verticalAlign=middle;whiteSpace=wrap;rounded=0;strokeWidth=2;opacity=50;fontStyle=1;fontSize=14;labelBackgroundColor=none;labelBorderColor=none;" vertex="1" parent="1">
          <mxGeometry x="-1750" y="12791" width="91" height="30" as="geometry" />
        </mxCell>
        <mxCell id="GG6Al1zUWWnjfLum0q8_-329" value="安全中心" style="rounded=0;whiteSpace=wrap;html=1;fillColor=#1ba1e2;fontColor=#ffffff;strokeColor=#006EAF;fontStyle=1;fontSize=14;labelBackgroundColor=none;labelBorderColor=none;" vertex="1" parent="1">
          <mxGeometry x="-1185.75" y="13272" width="231.12" height="84" as="geometry" />
        </mxCell>
        <mxCell id="GG6Al1zUWWnjfLum0q8_-334" value="tdw运维中心" style="rounded=0;whiteSpace=wrap;html=1;fillColor=#1ba1e2;fontColor=#ffffff;strokeColor=#006EAF;fontStyle=1;fontSize=14;labelBackgroundColor=none;labelBorderColor=none;" vertex="1" parent="1">
          <mxGeometry x="-1151.93" y="12940.29" width="179" height="58.5" as="geometry" />
        </mxCell>
        <mxCell id="GG6Al1zUWWnjfLum0q8_-335" value="ups" style="rounded=0;whiteSpace=wrap;html=1;fillColor=#1ba1e2;fontColor=#ffffff;strokeColor=#006EAF;fontStyle=1;fontSize=14;labelBackgroundColor=none;labelBorderColor=none;" vertex="1" parent="1">
          <mxGeometry x="-1185.75" y="13425" width="231.12" height="84" as="geometry" />
        </mxCell>
        <mxCell id="GG6Al1zUWWnjfLum0q8_-339" value="" style="rounded=0;whiteSpace=wrap;html=1;dashed=1;strokeColor=#0066CC;fillColor=none;" vertex="1" parent="1">
          <mxGeometry x="-1169" y="10529" width="856" height="1008" as="geometry" />
        </mxCell>
        <mxCell id="GG6Al1zUWWnjfLum0q8_-340" value="" style="rounded=0;whiteSpace=wrap;html=1;dashed=1;strokeColor=#0066CC;fillColor=none;" vertex="1" parent="1">
          <mxGeometry x="-1044" y="10621" width="591" height="364" as="geometry" />
        </mxCell>
        <mxCell id="GG6Al1zUWWnjfLum0q8_-341" value="wedata控制台" style="rounded=0;whiteSpace=wrap;html=1;fillColor=#60a917;fontColor=#ffffff;strokeColor=#2D7600;" vertex="1" parent="1">
          <mxGeometry x="-991" y="10681.5" width="101.87" height="52" as="geometry" />
        </mxCell>
        <mxCell id="GG6Al1zUWWnjfLum0q8_-342" value="wedata资源管理" style="rounded=0;whiteSpace=wrap;html=1;fillColor=#60a917;fontColor=#ffffff;strokeColor=#2D7600;" vertex="1" parent="1">
          <mxGeometry x="-991" y="10878" width="101.87" height="52" as="geometry" />
        </mxCell>
        <mxCell id="GG6Al1zUWWnjfLum0q8_-343" value="" style="rounded=0;whiteSpace=wrap;html=1;dashed=1;strokeColor=#0066CC;fillColor=none;" vertex="1" parent="1">
          <mxGeometry x="-1044" y="11079" width="591" height="364" as="geometry" />
        </mxCell>
        <mxCell id="GG6Al1zUWWnjfLum0q8_-344" value="安全中心" style="rounded=0;whiteSpace=wrap;html=1;fillColor=#1ba1e2;fontColor=#ffffff;strokeColor=#006EAF;" vertex="1" parent="1">
          <mxGeometry x="-650" y="10683" width="144" height="49" as="geometry" />
        </mxCell>
        <mxCell id="GG6Al1zUWWnjfLum0q8_-345" value="tdw运维中心" style="rounded=0;whiteSpace=wrap;html=1;fillColor=#1ba1e2;fontColor=#ffffff;strokeColor=#006EAF;" vertex="1" parent="1">
          <mxGeometry x="-655.75" y="10884" width="155.75" height="51" as="geometry" />
        </mxCell>
        <mxCell id="GG6Al1zUWWnjfLum0q8_-346" value="" style="endArrow=classic;html=1;rounded=1;labelBackgroundColor=none;strokeColor=#000000;fontColor=none;entryX=0;entryY=0.5;entryDx=0;entryDy=0;exitX=1;exitY=0.5;exitDx=0;exitDy=0;" edge="1" parent="1" source="GG6Al1zUWWnjfLum0q8_-341" target="GG6Al1zUWWnjfLum0q8_-344">
          <mxGeometry width="50" height="50" relative="1" as="geometry">
            <mxPoint x="-1132" y="10671" as="sourcePoint" />
            <mxPoint x="-1082" y="10621" as="targetPoint" />
          </mxGeometry>
        </mxCell>
        <mxCell id="GG6Al1zUWWnjfLum0q8_-347" value="1.提交申请/调整资源审批" style="edgeLabel;html=1;align=center;verticalAlign=middle;resizable=0;points=[];fontColor=none;" vertex="1" connectable="0" parent="GG6Al1zUWWnjfLum0q8_-346">
          <mxGeometry x="-0.245" y="-2" relative="1" as="geometry">
            <mxPoint x="33" y="-3" as="offset" />
          </mxGeometry>
        </mxCell>
        <mxCell id="GG6Al1zUWWnjfLum0q8_-348" value="" style="endArrow=classic;html=1;rounded=1;labelBackgroundColor=none;strokeColor=#000000;fontColor=none;entryX=0.5;entryY=0;entryDx=0;entryDy=0;exitX=0.5;exitY=1;exitDx=0;exitDy=0;" edge="1" parent="1" source="GG6Al1zUWWnjfLum0q8_-341" target="GG6Al1zUWWnjfLum0q8_-342">
          <mxGeometry width="50" height="50" relative="1" as="geometry">
            <mxPoint x="-1132" y="10671" as="sourcePoint" />
            <mxPoint x="-1082" y="10621" as="targetPoint" />
          </mxGeometry>
        </mxCell>
        <mxCell id="GG6Al1zUWWnjfLum0q8_-349" value="2.创建默认资源池" style="edgeLabel;html=1;align=center;verticalAlign=middle;resizable=0;points=[];fontColor=none;" vertex="1" connectable="0" parent="GG6Al1zUWWnjfLum0q8_-348">
          <mxGeometry x="-0.2002" y="-2" relative="1" as="geometry">
            <mxPoint y="1" as="offset" />
          </mxGeometry>
        </mxCell>
        <mxCell id="GG6Al1zUWWnjfLum0q8_-350" value="3.申请/调整资源" style="endArrow=classic;html=1;rounded=1;labelBackgroundColor=none;strokeColor=#000000;fontColor=none;entryX=0;entryY=0.5;entryDx=0;entryDy=0;" edge="1" parent="1" target="GG6Al1zUWWnjfLum0q8_-345">
          <mxGeometry x="-0.0167" y="11" width="50" height="50" relative="1" as="geometry">
            <mxPoint x="-890" y="10913" as="sourcePoint" />
            <mxPoint x="-1082" y="10621" as="targetPoint" />
            <mxPoint x="-1" as="offset" />
          </mxGeometry>
        </mxCell>
        <mxCell id="GG6Al1zUWWnjfLum0q8_-351" value="ups tdw \ tdwpriv db" style="rounded=0;whiteSpace=wrap;html=1;fillColor=#1ba1e2;fontColor=#ffffff;strokeColor=#006EAF;" vertex="1" parent="1">
          <mxGeometry x="-650" y="10779" width="146" height="51" as="geometry" />
        </mxCell>
        <mxCell id="GG6Al1zUWWnjfLum0q8_-352" value="" style="endArrow=classic;html=1;rounded=1;labelBackgroundColor=none;strokeColor=#000000;fontColor=none;exitX=0;exitY=0.5;exitDx=0;exitDy=0;" edge="1" parent="1" source="GG6Al1zUWWnjfLum0q8_-351">
          <mxGeometry width="50" height="50" relative="1" as="geometry">
            <mxPoint x="-860" y="10844" as="sourcePoint" />
            <mxPoint x="-940" y="10877" as="targetPoint" />
          </mxGeometry>
        </mxCell>
        <mxCell id="GG6Al1zUWWnjfLum0q8_-353" value="2.同步元数据" style="edgeLabel;html=1;align=center;verticalAlign=middle;resizable=0;points=[];fontColor=none;" vertex="1" connectable="0" parent="GG6Al1zUWWnjfLum0q8_-352">
          <mxGeometry x="-0.1835" y="3" relative="1" as="geometry">
            <mxPoint x="-1" as="offset" />
          </mxGeometry>
        </mxCell>
        <mxCell id="GG6Al1zUWWnjfLum0q8_-354" value="创建默认资源组" style="text;html=1;strokeColor=none;fillColor=none;align=center;verticalAlign=middle;whiteSpace=wrap;rounded=0;strokeWidth=2;opacity=50;" vertex="1" parent="1">
          <mxGeometry x="-1038" y="10621" width="91" height="30" as="geometry" />
        </mxCell>
        <mxCell id="GG6Al1zUWWnjfLum0q8_-355" value="wedata控制台" style="rounded=0;whiteSpace=wrap;html=1;fillColor=#60a917;fontColor=#ffffff;strokeColor=#2D7600;" vertex="1" parent="1">
          <mxGeometry x="-962" y="11143.25" width="101.87" height="52" as="geometry" />
        </mxCell>
        <mxCell id="GG6Al1zUWWnjfLum0q8_-356" value="wedata资源管理" style="rounded=0;whiteSpace=wrap;html=1;fillColor=#60a917;fontColor=#ffffff;strokeColor=#2D7600;" vertex="1" parent="1">
          <mxGeometry x="-962" y="11334.75" width="101.87" height="52" as="geometry" />
        </mxCell>
        <mxCell id="GG6Al1zUWWnjfLum0q8_-357" value="安全中心" style="rounded=0;whiteSpace=wrap;html=1;fillColor=#1ba1e2;fontColor=#ffffff;strokeColor=#006EAF;" vertex="1" parent="1">
          <mxGeometry x="-640" y="11146.25" width="103" height="49" as="geometry" />
        </mxCell>
        <mxCell id="GG6Al1zUWWnjfLum0q8_-358" value="ups" style="rounded=0;whiteSpace=wrap;html=1;fillColor=#1ba1e2;fontColor=#ffffff;strokeColor=#006EAF;" vertex="1" parent="1">
          <mxGeometry x="-640" y="11336.25" width="103" height="49" as="geometry" />
        </mxCell>
        <mxCell id="GG6Al1zUWWnjfLum0q8_-359" value="" style="endArrow=classic;html=1;rounded=1;labelBackgroundColor=none;strokeColor=#000000;fontColor=none;entryX=0.5;entryY=0;entryDx=0;entryDy=0;exitX=0.5;exitY=1;exitDx=0;exitDy=0;" edge="1" parent="1" source="GG6Al1zUWWnjfLum0q8_-355" target="GG6Al1zUWWnjfLum0q8_-356">
          <mxGeometry width="50" height="50" relative="1" as="geometry">
            <mxPoint x="-327" y="10674.75" as="sourcePoint" />
            <mxPoint x="-277" y="10624.75" as="targetPoint" />
          </mxGeometry>
        </mxCell>
        <mxCell id="GG6Al1zUWWnjfLum0q8_-360" value="3.创建资源池" style="edgeLabel;html=1;align=center;verticalAlign=middle;resizable=0;points=[];fontColor=none;" vertex="1" connectable="0" parent="GG6Al1zUWWnjfLum0q8_-359">
          <mxGeometry x="-0.2002" y="-2" relative="1" as="geometry">
            <mxPoint y="1" as="offset" />
          </mxGeometry>
        </mxCell>
        <mxCell id="GG6Al1zUWWnjfLum0q8_-361" value="" style="endArrow=classic;html=1;rounded=1;labelBackgroundColor=none;strokeColor=#000000;fontColor=none;exitX=0;exitY=0.5;exitDx=0;exitDy=0;entryX=1;entryY=0.5;entryDx=0;entryDy=0;" edge="1" parent="1" source="GG6Al1zUWWnjfLum0q8_-357" target="GG6Al1zUWWnjfLum0q8_-355">
          <mxGeometry width="50" height="50" relative="1" as="geometry">
            <mxPoint x="-300" y="10787.25" as="sourcePoint" />
            <mxPoint x="-250" y="10737.25" as="targetPoint" />
          </mxGeometry>
        </mxCell>
        <mxCell id="GG6Al1zUWWnjfLum0q8_-362" value="1.纳管应用组" style="edgeLabel;html=1;align=center;verticalAlign=middle;resizable=0;points=[];fontColor=none;" vertex="1" connectable="0" parent="GG6Al1zUWWnjfLum0q8_-361">
          <mxGeometry x="0.1972" y="-4" relative="1" as="geometry">
            <mxPoint as="offset" />
          </mxGeometry>
        </mxCell>
        <mxCell id="GG6Al1zUWWnjfLum0q8_-363" value="" style="endArrow=classic;html=1;rounded=1;labelBackgroundColor=none;strokeColor=#000000;fontColor=none;exitX=0;exitY=0.5;exitDx=0;exitDy=0;entryX=1;entryY=0.5;entryDx=0;entryDy=0;" edge="1" parent="1" source="GG6Al1zUWWnjfLum0q8_-358" target="GG6Al1zUWWnjfLum0q8_-356">
          <mxGeometry width="50" height="50" relative="1" as="geometry">
            <mxPoint x="-621" y="11264.04" as="sourcePoint" />
            <mxPoint x="-913" y="11337.25" as="targetPoint" />
          </mxGeometry>
        </mxCell>
        <mxCell id="GG6Al1zUWWnjfLum0q8_-364" value="2.补全元数据" style="edgeLabel;html=1;align=center;verticalAlign=middle;resizable=0;points=[];fontColor=none;" vertex="1" connectable="0" parent="GG6Al1zUWWnjfLum0q8_-363">
          <mxGeometry x="0.1972" y="-4" relative="1" as="geometry">
            <mxPoint x="40" y="-11" as="offset" />
          </mxGeometry>
        </mxCell>
        <mxCell id="GG6Al1zUWWnjfLum0q8_-365" value="纳管应用组" style="text;html=1;strokeColor=none;fillColor=none;align=center;verticalAlign=middle;whiteSpace=wrap;rounded=0;strokeWidth=2;opacity=50;" vertex="1" parent="1">
          <mxGeometry x="-1042" y="11084.25" width="91" height="30" as="geometry" />
        </mxCell>
        <mxCell id="GG6Al1zUWWnjfLum0q8_-366" value="wedata资源管理" style="text;html=1;strokeColor=none;fillColor=none;align=center;verticalAlign=middle;whiteSpace=wrap;rounded=0;strokeWidth=2;opacity=50;" vertex="1" parent="1">
          <mxGeometry x="-1159" y="10531" width="91" height="30" as="geometry" />
        </mxCell>
        <mxCell id="GG6Al1zUWWnjfLum0q8_-372" value="" style="endArrow=classic;html=1;rounded=1;dashed=1;labelBackgroundColor=none;strokeColor=#CC0000;fontColor=none;exitX=0.002;exitY=0.386;exitDx=0;exitDy=0;entryX=0.996;entryY=0.048;entryDx=0;entryDy=0;entryPerimeter=0;exitPerimeter=0;fontStyle=1;fontSize=14;labelBorderColor=none;" edge="1" parent="1" source="GG6Al1zUWWnjfLum0q8_-376" target="GG6Al1zUWWnjfLum0q8_-323">
          <mxGeometry width="50" height="50" relative="1" as="geometry">
            <mxPoint x="-1203" y="13258" as="sourcePoint" />
            <mxPoint x="-1153" y="13208" as="targetPoint" />
          </mxGeometry>
        </mxCell>
        <mxCell id="GG6Al1zUWWnjfLum0q8_-374" value="&lt;span style=&quot;text-align: left; font-size: 14px;&quot;&gt;api获取资源组基础信息及成员&lt;/span&gt;" style="edgeLabel;html=1;align=center;verticalAlign=middle;resizable=0;points=[];fontColor=#CC0000;fontStyle=1;fontSize=14;labelBackgroundColor=none;labelBorderColor=none;" vertex="1" connectable="0" parent="GG6Al1zUWWnjfLum0q8_-372">
          <mxGeometry x="0.0022" y="-2" relative="1" as="geometry">
            <mxPoint x="23" y="4" as="offset" />
          </mxGeometry>
        </mxCell>
        <mxCell id="GG6Al1zUWWnjfLum0q8_-378" value="wedata控制台" style="rounded=0;whiteSpace=wrap;html=1;fillColor=#60a917;fontColor=#ffffff;strokeColor=#2D7600;fontStyle=1;fontSize=14;labelBackgroundColor=none;labelBorderColor=none;" vertex="1" parent="1">
          <mxGeometry x="-4349" y="14528" width="209" height="67" as="geometry" />
        </mxCell>
        <mxCell id="GG6Al1zUWWnjfLum0q8_-383" value="资源管理" style="rounded=0;whiteSpace=wrap;html=1;fillColor=#60a917;fontColor=#ffffff;strokeColor=#2D7600;fontStyle=1;fontSize=14;labelBackgroundColor=none;labelBorderColor=none;" vertex="1" parent="1">
          <mxGeometry x="-4349" y="14670" width="209" height="67" as="geometry" />
        </mxCell>
        <mxCell id="GG6Al1zUWWnjfLum0q8_-384" value="安全中心" style="rounded=0;whiteSpace=wrap;html=1;fillColor=#1ba1e2;fontColor=#ffffff;strokeColor=#006EAF;fontStyle=1;fontSize=14;labelBackgroundColor=none;labelBorderColor=none;" vertex="1" parent="1">
          <mxGeometry x="-3928.88" y="14479" width="204" height="67" as="geometry" />
        </mxCell>
        <mxCell id="GG6Al1zUWWnjfLum0q8_-385" value="ups" style="rounded=0;whiteSpace=wrap;html=1;fillColor=#1ba1e2;fontColor=#ffffff;strokeColor=#006EAF;fontStyle=1;fontSize=14;labelBackgroundColor=none;labelBorderColor=none;" vertex="1" parent="1">
          <mxGeometry x="-3931.88" y="14604" width="209" height="67" as="geometry" />
        </mxCell>
        <mxCell id="GG6Al1zUWWnjfLum0q8_-386" value="tdw运维中心" style="rounded=0;whiteSpace=wrap;html=1;fillColor=#1ba1e2;fontColor=#ffffff;strokeColor=#006EAF;fontStyle=1;fontSize=14;labelBackgroundColor=none;labelBorderColor=none;" vertex="1" parent="1">
          <mxGeometry x="-3933.88" y="14726" width="213" height="67" as="geometry" />
        </mxCell>
        <mxCell id="GG6Al1zUWWnjfLum0q8_-393" value="" style="endArrow=none;html=1;rounded=1;labelBackgroundColor=none;labelBorderColor=none;strokeColor=#000000;strokeWidth=1;fontSize=14;fontColor=#7EA6E0;exitX=1;exitY=0.5;exitDx=0;exitDy=0;entryX=0;entryY=0.5;entryDx=0;entryDy=0;fontStyle=1" edge="1" parent="1" source="GG6Al1zUWWnjfLum0q8_-378" target="GG6Al1zUWWnjfLum0q8_-384">
          <mxGeometry width="50" height="50" relative="1" as="geometry">
            <mxPoint x="-3836" y="14662" as="sourcePoint" />
            <mxPoint x="-3786" y="14612" as="targetPoint" />
          </mxGeometry>
        </mxCell>
        <mxCell id="GG6Al1zUWWnjfLum0q8_-471" value="纳管应用组" style="edgeLabel;html=1;align=center;verticalAlign=middle;resizable=0;points=[];fontSize=14;fontColor=#000000;fontStyle=1" vertex="1" connectable="0" parent="GG6Al1zUWWnjfLum0q8_-393">
          <mxGeometry x="-0.1799" y="3" relative="1" as="geometry">
            <mxPoint x="22" y="-7" as="offset" />
          </mxGeometry>
        </mxCell>
        <mxCell id="GG6Al1zUWWnjfLum0q8_-394" value="" style="endArrow=none;html=1;rounded=1;labelBackgroundColor=none;labelBorderColor=none;strokeColor=#000000;strokeWidth=1;fontSize=14;fontColor=#7EA6E0;exitX=1;exitY=0.5;exitDx=0;exitDy=0;entryX=0;entryY=0.5;entryDx=0;entryDy=0;fontStyle=1" edge="1" parent="1" source="GG6Al1zUWWnjfLum0q8_-383" target="GG6Al1zUWWnjfLum0q8_-386">
          <mxGeometry width="50" height="50" relative="1" as="geometry">
            <mxPoint x="-3836" y="14662" as="sourcePoint" />
            <mxPoint x="-3786" y="14612" as="targetPoint" />
          </mxGeometry>
        </mxCell>
        <mxCell id="GG6Al1zUWWnjfLum0q8_-469" value="申请/调配资源、&lt;br&gt;获取资源组信息" style="edgeLabel;html=1;align=center;verticalAlign=middle;resizable=0;points=[];fontSize=14;fontColor=#000000;fontStyle=1" vertex="1" connectable="0" parent="GG6Al1zUWWnjfLum0q8_-394">
          <mxGeometry x="-0.0541" y="3" relative="1" as="geometry">
            <mxPoint x="15" y="7" as="offset" />
          </mxGeometry>
        </mxCell>
        <mxCell id="GG6Al1zUWWnjfLum0q8_-395" value="" style="endArrow=none;html=1;rounded=1;labelBackgroundColor=none;labelBorderColor=none;strokeColor=#000000;strokeWidth=1;fontSize=14;fontColor=#7EA6E0;exitX=1;exitY=0.5;exitDx=0;exitDy=0;entryX=0;entryY=0.5;entryDx=0;entryDy=0;fontStyle=1" edge="1" parent="1" source="GG6Al1zUWWnjfLum0q8_-383" target="GG6Al1zUWWnjfLum0q8_-385">
          <mxGeometry width="50" height="50" relative="1" as="geometry">
            <mxPoint x="-3836" y="14662" as="sourcePoint" />
            <mxPoint x="-3786" y="14612" as="targetPoint" />
          </mxGeometry>
        </mxCell>
        <mxCell id="GG6Al1zUWWnjfLum0q8_-468" value="数据同步" style="edgeLabel;html=1;align=center;verticalAlign=middle;resizable=0;points=[];fontSize=14;fontColor=#000000;fontStyle=1" vertex="1" connectable="0" parent="GG6Al1zUWWnjfLum0q8_-395">
          <mxGeometry x="0.0153" y="-1" relative="1" as="geometry">
            <mxPoint as="offset" />
          </mxGeometry>
        </mxCell>
        <mxCell id="GG6Al1zUWWnjfLum0q8_-396" value="" style="endArrow=none;html=1;rounded=1;labelBackgroundColor=none;labelBorderColor=none;strokeColor=#000000;strokeWidth=1;fontSize=14;fontColor=#7EA6E0;entryX=0.5;entryY=1;entryDx=0;entryDy=0;fontStyle=1" edge="1" parent="1" source="GG6Al1zUWWnjfLum0q8_-383" target="GG6Al1zUWWnjfLum0q8_-378">
          <mxGeometry width="50" height="50" relative="1" as="geometry">
            <mxPoint x="-3836" y="14662" as="sourcePoint" />
            <mxPoint x="-3786" y="14612" as="targetPoint" />
          </mxGeometry>
        </mxCell>
        <mxCell id="GG6Al1zUWWnjfLum0q8_-470" value="资源组管理" style="edgeLabel;html=1;align=center;verticalAlign=middle;resizable=0;points=[];fontSize=14;fontColor=#000000;fontStyle=1" vertex="1" connectable="0" parent="GG6Al1zUWWnjfLum0q8_-396">
          <mxGeometry x="0.0092" y="-1" relative="1" as="geometry">
            <mxPoint y="1" as="offset" />
          </mxGeometry>
        </mxCell>
        <mxCell id="GG6Al1zUWWnjfLum0q8_-401" value="wedata" style="text;html=1;strokeColor=none;fillColor=none;align=center;verticalAlign=middle;whiteSpace=wrap;rounded=0;strokeWidth=2;opacity=50;fontStyle=1;fontSize=14;labelBackgroundColor=none;labelBorderColor=none;" vertex="1" parent="1">
          <mxGeometry x="-4398" y="14486" width="91" height="30" as="geometry" />
        </mxCell>
        <mxCell id="GG6Al1zUWWnjfLum0q8_-402" value="" style="rounded=0;whiteSpace=wrap;html=1;dashed=1;strokeColor=#0066CC;fillColor=none;fontStyle=1;fontSize=14;labelBackgroundColor=none;labelBorderColor=none;" vertex="1" parent="1">
          <mxGeometry x="-881.69" y="14030.04" width="379.59" height="119" as="geometry" />
        </mxCell>
        <mxCell id="GG6Al1zUWWnjfLum0q8_-403" value="" style="rounded=0;whiteSpace=wrap;html=1;dashed=1;strokeColor=#0066CC;fillColor=none;fontStyle=1;fontSize=14;labelBackgroundColor=none;labelBorderColor=none;" vertex="1" parent="1">
          <mxGeometry x="-1353.17" y="13911" width="306" height="902" as="geometry" />
        </mxCell>
        <mxCell id="GG6Al1zUWWnjfLum0q8_-404" value="" style="rounded=0;whiteSpace=wrap;html=1;dashed=1;strokeColor=#990000;fillColor=none;fontStyle=1;fontSize=14;labelBackgroundColor=none;labelBorderColor=none;" vertex="1" parent="1">
          <mxGeometry x="-1293.17" y="13954" width="185" height="364" as="geometry" />
        </mxCell>
        <mxCell id="GG6Al1zUWWnjfLum0q8_-405" value="wedata控制台" style="rounded=0;whiteSpace=wrap;html=1;fillColor=#60a917;fontColor=#ffffff;strokeColor=#2D7600;fontStyle=1;fontSize=14;labelBackgroundColor=none;labelBorderColor=none;" vertex="1" parent="1">
          <mxGeometry x="-1251.17" y="14014.5" width="101.87" height="52" as="geometry" />
        </mxCell>
        <mxCell id="GG6Al1zUWWnjfLum0q8_-406" value="资源管理" style="rounded=0;whiteSpace=wrap;html=1;fillColor=#60a917;fontColor=#ffffff;strokeColor=#2D7600;fontStyle=1;fontSize=14;labelBackgroundColor=none;labelBorderColor=none;" vertex="1" parent="1">
          <mxGeometry x="-1251.17" y="14211" width="101.87" height="52" as="geometry" />
        </mxCell>
        <mxCell id="GG6Al1zUWWnjfLum0q8_-407" value="" style="rounded=0;whiteSpace=wrap;html=1;dashed=1;strokeColor=#990000;fillColor=none;fontStyle=1;fontSize=14;labelBackgroundColor=none;labelBorderColor=none;" vertex="1" parent="1">
          <mxGeometry x="-1293.17" y="14412" width="186" height="364" as="geometry" />
        </mxCell>
        <mxCell id="GG6Al1zUWWnjfLum0q8_-408" value="" style="endArrow=classic;html=1;rounded=1;labelBackgroundColor=none;strokeColor=#67AB9F;fontColor=none;entryX=0;entryY=0;entryDx=0;entryDy=0;exitX=1;exitY=0.5;exitDx=0;exitDy=0;fontStyle=1;fontSize=14;labelBorderColor=none;" edge="1" parent="1" source="GG6Al1zUWWnjfLum0q8_-405" target="GG6Al1zUWWnjfLum0q8_-427">
          <mxGeometry width="50" height="50" relative="1" as="geometry">
            <mxPoint x="-1392.17" y="14004" as="sourcePoint" />
            <mxPoint x="-910.1700000000001" y="14040.5" as="targetPoint" />
          </mxGeometry>
        </mxCell>
        <mxCell id="GG6Al1zUWWnjfLum0q8_-409" value="2.提交申请/调配资源审批" style="edgeLabel;html=1;align=center;verticalAlign=middle;resizable=0;points=[];fontColor=#67AB9F;fontStyle=1;fontSize=14;labelBackgroundColor=none;labelBorderColor=none;" vertex="1" connectable="0" parent="GG6Al1zUWWnjfLum0q8_-408">
          <mxGeometry x="-0.245" y="-2" relative="1" as="geometry">
            <mxPoint x="-66" y="-94" as="offset" />
          </mxGeometry>
        </mxCell>
        <mxCell id="GG6Al1zUWWnjfLum0q8_-410" value="" style="endArrow=classic;html=1;rounded=1;labelBackgroundColor=none;strokeColor=#67AB9F;fontColor=none;entryX=0.5;entryY=0;entryDx=0;entryDy=0;exitX=0.5;exitY=1;exitDx=0;exitDy=0;fontStyle=1;fontSize=14;labelBorderColor=none;" edge="1" parent="1" source="GG6Al1zUWWnjfLum0q8_-405" target="GG6Al1zUWWnjfLum0q8_-406">
          <mxGeometry width="50" height="50" relative="1" as="geometry">
            <mxPoint x="-1392.17" y="14004" as="sourcePoint" />
            <mxPoint x="-1342.17" y="13954" as="targetPoint" />
          </mxGeometry>
        </mxCell>
        <mxCell id="GG6Al1zUWWnjfLum0q8_-411" value="1.创建默认资源组" style="edgeLabel;html=1;align=center;verticalAlign=middle;resizable=0;points=[];fontColor=#67AB9F;fontStyle=1;fontSize=14;labelBackgroundColor=none;labelBorderColor=none;" vertex="1" connectable="0" parent="GG6Al1zUWWnjfLum0q8_-410">
          <mxGeometry x="-0.2002" y="-2" relative="1" as="geometry">
            <mxPoint y="1" as="offset" />
          </mxGeometry>
        </mxCell>
        <mxCell id="GG6Al1zUWWnjfLum0q8_-412" value="" style="rounded=0;whiteSpace=wrap;html=1;dashed=1;strokeColor=#0066CC;fillColor=none;fontStyle=1;fontSize=14;labelBackgroundColor=none;labelBorderColor=none;" vertex="1" parent="1">
          <mxGeometry x="-879.9200000000001" y="14335" width="379.92" height="361" as="geometry" />
        </mxCell>
        <mxCell id="GG6Al1zUWWnjfLum0q8_-413" value="3.申请/调配资源" style="endArrow=classic;html=1;rounded=1;labelBackgroundColor=none;strokeColor=#67AB9F;fontColor=#67AB9F;entryX=0;entryY=0.75;entryDx=0;entryDy=0;exitX=0.5;exitY=0;exitDx=0;exitDy=0;fontStyle=1;fontSize=14;labelBorderColor=none;" edge="1" parent="1" source="GG6Al1zUWWnjfLum0q8_-406" target="GG6Al1zUWWnjfLum0q8_-402">
          <mxGeometry x="-0.4477" width="50" height="50" relative="1" as="geometry">
            <mxPoint x="-1150.17" y="14246" as="sourcePoint" />
            <mxPoint x="-915.9200000000001" y="14242.5" as="targetPoint" />
            <mxPoint x="1" as="offset" />
          </mxGeometry>
        </mxCell>
        <mxCell id="GG6Al1zUWWnjfLum0q8_-414" value="" style="endArrow=classic;html=1;rounded=1;labelBackgroundColor=none;strokeColor=#67AB9F;fontColor=none;entryX=1;entryY=0.5;entryDx=0;entryDy=0;exitX=0;exitY=0.5;exitDx=0;exitDy=0;strokeWidth=1;fontStyle=1;dashed=1;fontSize=14;labelBorderColor=none;" edge="1" parent="1" source="GG6Al1zUWWnjfLum0q8_-429" target="GG6Al1zUWWnjfLum0q8_-406">
          <mxGeometry width="50" height="50" relative="1" as="geometry">
            <mxPoint x="-825.1700000000001" y="14248" as="sourcePoint" />
            <mxPoint x="-1200.17" y="14210" as="targetPoint" />
          </mxGeometry>
        </mxCell>
        <mxCell id="GG6Al1zUWWnjfLum0q8_-415" value="同步元数据" style="edgeLabel;html=1;align=center;verticalAlign=middle;resizable=0;points=[];fontColor=#67AB9F;fontStyle=1;fontSize=14;labelBackgroundColor=none;labelBorderColor=none;" vertex="1" connectable="0" parent="GG6Al1zUWWnjfLum0q8_-414">
          <mxGeometry x="-0.1835" y="3" relative="1" as="geometry">
            <mxPoint x="-127" y="-132" as="offset" />
          </mxGeometry>
        </mxCell>
        <mxCell id="GG6Al1zUWWnjfLum0q8_-416" value="默认资源组" style="text;html=1;strokeColor=none;fillColor=none;align=center;verticalAlign=middle;whiteSpace=wrap;rounded=0;strokeWidth=2;opacity=50;fontStyle=1;fontSize=14;labelBackgroundColor=none;labelBorderColor=none;" vertex="1" parent="1">
          <mxGeometry x="-1306.17" y="13954" width="107" height="30" as="geometry" />
        </mxCell>
        <mxCell id="GG6Al1zUWWnjfLum0q8_-417" value="wedata控制台" style="rounded=0;whiteSpace=wrap;html=1;fillColor=#60a917;fontColor=#ffffff;strokeColor=#2D7600;fontStyle=1;fontSize=14;labelBackgroundColor=none;labelBorderColor=none;" vertex="1" parent="1">
          <mxGeometry x="-1244.17" y="14476.25" width="101.87" height="52" as="geometry" />
        </mxCell>
        <mxCell id="GG6Al1zUWWnjfLum0q8_-418" value="资源管理" style="rounded=0;whiteSpace=wrap;html=1;fillColor=#60a917;fontColor=#ffffff;strokeColor=#2D7600;fontStyle=1;fontSize=14;labelBackgroundColor=none;labelBorderColor=none;" vertex="1" parent="1">
          <mxGeometry x="-1244.17" y="14667.75" width="101.87" height="52" as="geometry" />
        </mxCell>
        <mxCell id="GG6Al1zUWWnjfLum0q8_-419" value="" style="endArrow=classic;html=1;rounded=1;labelBackgroundColor=none;strokeColor=#7EA6E0;fontColor=none;entryX=0.5;entryY=0;entryDx=0;entryDy=0;exitX=0.5;exitY=1;exitDx=0;exitDy=0;fontStyle=1;fontSize=14;labelBorderColor=none;" edge="1" parent="1" source="GG6Al1zUWWnjfLum0q8_-417" target="GG6Al1zUWWnjfLum0q8_-418">
          <mxGeometry width="50" height="50" relative="1" as="geometry">
            <mxPoint x="-609.1700000000001" y="14007.75" as="sourcePoint" />
            <mxPoint x="-559.1700000000001" y="13957.75" as="targetPoint" />
          </mxGeometry>
        </mxCell>
        <mxCell id="GG6Al1zUWWnjfLum0q8_-420" value="3.创建纳管资源组&lt;br style=&quot;font-size: 14px;&quot;&gt;绑定资源关系" style="edgeLabel;html=1;align=center;verticalAlign=middle;resizable=0;points=[];fontColor=#7EA6E0;fontStyle=1;fontSize=14;labelBackgroundColor=none;labelBorderColor=none;" vertex="1" connectable="0" parent="GG6Al1zUWWnjfLum0q8_-419">
          <mxGeometry x="-0.2002" y="-2" relative="1" as="geometry">
            <mxPoint x="-2" y="10" as="offset" />
          </mxGeometry>
        </mxCell>
        <mxCell id="GG6Al1zUWWnjfLum0q8_-421" value="" style="endArrow=classic;html=1;rounded=1;labelBackgroundColor=none;strokeColor=#7EA6E0;fontColor=none;exitX=0;exitY=0.5;exitDx=0;exitDy=0;entryX=1;entryY=0.5;entryDx=0;entryDy=0;fontStyle=1;fontSize=14;labelBorderColor=none;" edge="1" parent="1" source="GG6Al1zUWWnjfLum0q8_-427" target="GG6Al1zUWWnjfLum0q8_-417">
          <mxGeometry width="50" height="50" relative="1" as="geometry">
            <mxPoint x="-900.1700000000001" y="14503.75" as="sourcePoint" />
            <mxPoint x="-510.17" y="14070.25" as="targetPoint" />
          </mxGeometry>
        </mxCell>
        <mxCell id="GG6Al1zUWWnjfLum0q8_-422" value="1.纳管应用组" style="edgeLabel;html=1;align=center;verticalAlign=middle;resizable=0;points=[];fontColor=#7EA6E0;fontStyle=1;fontSize=14;labelBackgroundColor=none;labelBorderColor=none;" vertex="1" connectable="0" parent="GG6Al1zUWWnjfLum0q8_-421">
          <mxGeometry x="0.1972" y="-4" relative="1" as="geometry">
            <mxPoint x="-65" y="17" as="offset" />
          </mxGeometry>
        </mxCell>
        <mxCell id="GG6Al1zUWWnjfLum0q8_-423" value="" style="endArrow=classic;html=1;rounded=1;labelBackgroundColor=none;strokeColor=#7EA6E0;fontColor=none;exitX=0.005;exitY=0.631;exitDx=0;exitDy=0;exitPerimeter=0;fontStyle=1;fontSize=14;labelBorderColor=none;" edge="1" parent="1" source="GG6Al1zUWWnjfLum0q8_-429" target="GG6Al1zUWWnjfLum0q8_-418">
          <mxGeometry width="50" height="50" relative="1" as="geometry">
            <mxPoint x="-900.1700000000001" y="14693.75" as="sourcePoint" />
            <mxPoint x="-1173.17" y="14670.25" as="targetPoint" />
          </mxGeometry>
        </mxCell>
        <mxCell id="GG6Al1zUWWnjfLum0q8_-424" value="2.补全元数据" style="edgeLabel;html=1;align=center;verticalAlign=middle;resizable=0;points=[];fontColor=#7EA6E0;fontStyle=1;fontSize=14;labelBackgroundColor=none;labelBorderColor=none;" vertex="1" connectable="0" parent="GG6Al1zUWWnjfLum0q8_-423">
          <mxGeometry x="0.1972" y="-4" relative="1" as="geometry">
            <mxPoint x="-63" y="24" as="offset" />
          </mxGeometry>
        </mxCell>
        <mxCell id="GG6Al1zUWWnjfLum0q8_-425" value="纳管应用组" style="text;html=1;strokeColor=none;fillColor=none;align=center;verticalAlign=middle;whiteSpace=wrap;rounded=0;strokeWidth=2;opacity=50;fontStyle=1;fontSize=14;labelBackgroundColor=none;labelBorderColor=none;" vertex="1" parent="1">
          <mxGeometry x="-1302.17" y="14417.25" width="91" height="30" as="geometry" />
        </mxCell>
        <mxCell id="GG6Al1zUWWnjfLum0q8_-426" value="wedata" style="text;html=1;strokeColor=none;fillColor=none;align=center;verticalAlign=middle;whiteSpace=wrap;rounded=0;strokeWidth=2;opacity=50;fontStyle=1;fontSize=14;labelBackgroundColor=none;labelBorderColor=none;" vertex="1" parent="1">
          <mxGeometry x="-1369.17" y="13911" width="91" height="30" as="geometry" />
        </mxCell>
        <mxCell id="GG6Al1zUWWnjfLum0q8_-427" value="安全中心" style="rounded=0;whiteSpace=wrap;html=1;fillColor=#1ba1e2;fontColor=#ffffff;strokeColor=#006EAF;fontStyle=1;fontSize=14;labelBackgroundColor=none;labelBorderColor=none;" vertex="1" parent="1">
          <mxGeometry x="-804.9200000000001" y="14392" width="231.12" height="84" as="geometry" />
        </mxCell>
        <mxCell id="GG6Al1zUWWnjfLum0q8_-428" value="tdw运维中心" style="rounded=0;whiteSpace=wrap;html=1;fillColor=#1ba1e2;fontColor=#ffffff;strokeColor=#006EAF;fontStyle=1;fontSize=14;labelBackgroundColor=none;labelBorderColor=none;" vertex="1" parent="1">
          <mxGeometry x="-771.1000000000001" y="14060.29" width="179" height="58.5" as="geometry" />
        </mxCell>
        <mxCell id="GG6Al1zUWWnjfLum0q8_-429" value="ups" style="rounded=0;whiteSpace=wrap;html=1;fillColor=#1ba1e2;fontColor=#ffffff;strokeColor=#006EAF;fontStyle=1;fontSize=14;labelBackgroundColor=none;labelBorderColor=none;" vertex="1" parent="1">
          <mxGeometry x="-804.9200000000001" y="14545" width="231.12" height="84" as="geometry" />
        </mxCell>
        <mxCell id="GG6Al1zUWWnjfLum0q8_-430" value="" style="endArrow=classic;html=1;rounded=1;dashed=1;labelBackgroundColor=none;strokeColor=#CC0000;fontColor=none;exitX=0.002;exitY=0.386;exitDx=0;exitDy=0;entryX=0.996;entryY=0.048;entryDx=0;entryDy=0;entryPerimeter=0;exitPerimeter=0;fontStyle=1;fontSize=14;labelBorderColor=none;" edge="1" parent="1" source="GG6Al1zUWWnjfLum0q8_-402" target="GG6Al1zUWWnjfLum0q8_-403">
          <mxGeometry width="50" height="50" relative="1" as="geometry">
            <mxPoint x="-822.1700000000001" y="14378" as="sourcePoint" />
            <mxPoint x="-772.1700000000001" y="14328" as="targetPoint" />
          </mxGeometry>
        </mxCell>
        <mxCell id="GG6Al1zUWWnjfLum0q8_-431" value="&lt;span style=&quot;text-align: left; font-size: 14px;&quot;&gt;api获取资源组基础信息及成员&lt;/span&gt;" style="edgeLabel;html=1;align=center;verticalAlign=middle;resizable=0;points=[];fontColor=#CC0000;fontStyle=1;fontSize=14;labelBackgroundColor=none;labelBorderColor=none;" vertex="1" connectable="0" parent="GG6Al1zUWWnjfLum0q8_-430">
          <mxGeometry x="0.0022" y="-2" relative="1" as="geometry">
            <mxPoint x="23" y="4" as="offset" />
          </mxGeometry>
        </mxCell>
        <mxCell id="GG6Al1zUWWnjfLum0q8_-432" value="" style="rounded=0;whiteSpace=wrap;html=1;dashed=1;strokeColor=#0066CC;fillColor=none;fontStyle=1" vertex="1" parent="1">
          <mxGeometry x="-3258" y="14134" width="195" height="355" as="geometry" />
        </mxCell>
        <mxCell id="GG6Al1zUWWnjfLum0q8_-433" value="wedata控制台" style="rounded=0;whiteSpace=wrap;html=1;fillColor=#60a917;fontColor=#ffffff;strokeColor=#2D7600;fontStyle=1" vertex="1" parent="1">
          <mxGeometry x="-3214" y="14185.5" width="101.87" height="52" as="geometry" />
        </mxCell>
        <mxCell id="GG6Al1zUWWnjfLum0q8_-434" value="资源管理" style="rounded=0;whiteSpace=wrap;html=1;fillColor=#60a917;fontColor=#ffffff;strokeColor=#2D7600;fontStyle=1" vertex="1" parent="1">
          <mxGeometry x="-3214" y="14311" width="101.87" height="52" as="geometry" />
        </mxCell>
        <mxCell id="GG6Al1zUWWnjfLum0q8_-435" value="安全中心" style="rounded=0;whiteSpace=wrap;html=1;fillColor=#1ba1e2;fontColor=#ffffff;strokeColor=#006EAF;fontStyle=1" vertex="1" parent="1">
          <mxGeometry x="-2873" y="14187" width="144" height="49" as="geometry" />
        </mxCell>
        <mxCell id="GG6Al1zUWWnjfLum0q8_-436" value="tdw运维中心" style="rounded=0;whiteSpace=wrap;html=1;fillColor=#1ba1e2;fontColor=#ffffff;strokeColor=#006EAF;fontStyle=1" vertex="1" parent="1">
          <mxGeometry x="-2875.87" y="14425.25" width="155.75" height="51" as="geometry" />
        </mxCell>
        <mxCell id="GG6Al1zUWWnjfLum0q8_-438" value="" style="endArrow=classic;html=1;rounded=1;labelBackgroundColor=none;strokeColor=#000000;fontColor=none;entryX=0.5;entryY=0;entryDx=0;entryDy=0;exitX=0.5;exitY=1;exitDx=0;exitDy=0;fontStyle=1" edge="1" parent="1" source="GG6Al1zUWWnjfLum0q8_-433" target="GG6Al1zUWWnjfLum0q8_-434">
          <mxGeometry width="50" height="50" relative="1" as="geometry">
            <mxPoint x="-3355" y="14175" as="sourcePoint" />
            <mxPoint x="-3305" y="14125" as="targetPoint" />
          </mxGeometry>
        </mxCell>
        <mxCell id="GG6Al1zUWWnjfLum0q8_-439" value="1.创建默认资源组" style="edgeLabel;html=1;align=center;verticalAlign=middle;resizable=0;points=[];fontColor=none;fontStyle=1" vertex="1" connectable="0" parent="GG6Al1zUWWnjfLum0q8_-438">
          <mxGeometry x="-0.2002" y="-2" relative="1" as="geometry">
            <mxPoint y="1" as="offset" />
          </mxGeometry>
        </mxCell>
        <mxCell id="GG6Al1zUWWnjfLum0q8_-440" value="3.申请/调整资源" style="endArrow=classic;html=1;rounded=1;labelBackgroundColor=none;strokeColor=#000000;fontColor=none;entryX=0;entryY=0.5;entryDx=0;entryDy=0;fontStyle=1" edge="1" parent="1" target="GG6Al1zUWWnjfLum0q8_-436">
          <mxGeometry x="-0.0167" y="11" width="50" height="50" relative="1" as="geometry">
            <mxPoint x="-3111" y="14348" as="sourcePoint" />
            <mxPoint x="-3305" y="14125" as="targetPoint" />
            <mxPoint x="-1" as="offset" />
          </mxGeometry>
        </mxCell>
        <mxCell id="GG6Al1zUWWnjfLum0q8_-441" value="ups tdw \ tdwpriv db" style="rounded=0;whiteSpace=wrap;html=1;fillColor=#1ba1e2;fontColor=#ffffff;strokeColor=#006EAF;fontStyle=1" vertex="1" parent="1">
          <mxGeometry x="-2873" y="14283" width="146" height="51" as="geometry" />
        </mxCell>
        <mxCell id="GG6Al1zUWWnjfLum0q8_-442" value="" style="endArrow=classic;html=1;rounded=1;labelBackgroundColor=none;strokeColor=#000000;fontColor=none;exitX=0;exitY=0.5;exitDx=0;exitDy=0;dashed=1;fontStyle=1" edge="1" parent="1" source="GG6Al1zUWWnjfLum0q8_-441">
          <mxGeometry width="50" height="50" relative="1" as="geometry">
            <mxPoint x="-3083" y="14348" as="sourcePoint" />
            <mxPoint x="-3110" y="14332" as="targetPoint" />
          </mxGeometry>
        </mxCell>
        <mxCell id="GG6Al1zUWWnjfLum0q8_-443" value="定时同步数据" style="edgeLabel;html=1;align=center;verticalAlign=middle;resizable=0;points=[];fontColor=none;fontStyle=1" vertex="1" connectable="0" parent="GG6Al1zUWWnjfLum0q8_-442">
          <mxGeometry x="-0.1835" y="3" relative="1" as="geometry">
            <mxPoint x="-10" y="-4" as="offset" />
          </mxGeometry>
        </mxCell>
        <mxCell id="GG6Al1zUWWnjfLum0q8_-444" value="" style="rounded=0;whiteSpace=wrap;html=1;dashed=1;strokeColor=#0066CC;fillColor=none;fontStyle=1" vertex="1" parent="1">
          <mxGeometry x="-3227" y="14638" width="188" height="335" as="geometry" />
        </mxCell>
        <mxCell id="GG6Al1zUWWnjfLum0q8_-445" value="wedata控制台" style="rounded=0;whiteSpace=wrap;html=1;fillColor=#60a917;fontColor=#ffffff;strokeColor=#2D7600;fontStyle=1" vertex="1" parent="1">
          <mxGeometry x="-3185" y="14673.25" width="101.87" height="52" as="geometry" />
        </mxCell>
        <mxCell id="GG6Al1zUWWnjfLum0q8_-446" value="资源管理" style="rounded=0;whiteSpace=wrap;html=1;fillColor=#60a917;fontColor=#ffffff;strokeColor=#2D7600;fontStyle=1" vertex="1" parent="1">
          <mxGeometry x="-3185" y="14804" width="101.87" height="52" as="geometry" />
        </mxCell>
        <mxCell id="GG6Al1zUWWnjfLum0q8_-447" value="安全中心" style="rounded=0;whiteSpace=wrap;html=1;fillColor=#1ba1e2;fontColor=#ffffff;strokeColor=#006EAF;fontStyle=1" vertex="1" parent="1">
          <mxGeometry x="-2871" y="14676.25" width="143" height="49" as="geometry" />
        </mxCell>
        <mxCell id="GG6Al1zUWWnjfLum0q8_-448" value="ups" style="rounded=0;whiteSpace=wrap;html=1;fillColor=#1ba1e2;fontColor=#ffffff;strokeColor=#006EAF;fontStyle=1" vertex="1" parent="1">
          <mxGeometry x="-2871" y="14778" width="144" height="49" as="geometry" />
        </mxCell>
        <mxCell id="GG6Al1zUWWnjfLum0q8_-449" value="" style="endArrow=classic;html=1;rounded=1;labelBackgroundColor=none;strokeColor=#000000;fontColor=none;entryX=0.5;entryY=0;entryDx=0;entryDy=0;exitX=0.5;exitY=1;exitDx=0;exitDy=0;fontStyle=1" edge="1" parent="1" source="GG6Al1zUWWnjfLum0q8_-445" target="GG6Al1zUWWnjfLum0q8_-446">
          <mxGeometry width="50" height="50" relative="1" as="geometry">
            <mxPoint x="-2550" y="14204.75" as="sourcePoint" />
            <mxPoint x="-2500" y="14154.75" as="targetPoint" />
          </mxGeometry>
        </mxCell>
        <mxCell id="GG6Al1zUWWnjfLum0q8_-466" value="&lt;span style=&quot;font-size: 11px;&quot;&gt;3.创建资源组&lt;/span&gt;" style="edgeLabel;html=1;align=center;verticalAlign=middle;resizable=0;points=[];fontSize=14;fontColor=#000000;fontStyle=1" vertex="1" connectable="0" parent="GG6Al1zUWWnjfLum0q8_-449">
          <mxGeometry x="0.4014" y="1" relative="1" as="geometry">
            <mxPoint y="-9" as="offset" />
          </mxGeometry>
        </mxCell>
        <mxCell id="GG6Al1zUWWnjfLum0q8_-452" value="" style="endArrow=classic;html=1;rounded=1;labelBackgroundColor=none;strokeColor=#000000;fontColor=none;exitX=0;exitY=0.5;exitDx=0;exitDy=0;fontStyle=1" edge="1" parent="1" source="GG6Al1zUWWnjfLum0q8_-448">
          <mxGeometry width="50" height="50" relative="1" as="geometry">
            <mxPoint x="-2844" y="14794.04" as="sourcePoint" />
            <mxPoint x="-3134" y="14753" as="targetPoint" />
          </mxGeometry>
        </mxCell>
        <mxCell id="GG6Al1zUWWnjfLum0q8_-453" value="2.补全服务地址" style="edgeLabel;html=1;align=center;verticalAlign=middle;resizable=0;points=[];fontColor=none;fontStyle=1" vertex="1" connectable="0" parent="GG6Al1zUWWnjfLum0q8_-452">
          <mxGeometry x="0.1972" y="-4" relative="1" as="geometry">
            <mxPoint x="36" y="4" as="offset" />
          </mxGeometry>
        </mxCell>
        <mxCell id="GG6Al1zUWWnjfLum0q8_-454" value="wedata" style="text;html=1;strokeColor=none;fillColor=none;align=center;verticalAlign=middle;whiteSpace=wrap;rounded=0;strokeWidth=2;opacity=50;fontStyle=1" vertex="1" parent="1">
          <mxGeometry x="-3242" y="14639" width="91" height="30" as="geometry" />
        </mxCell>
        <mxCell id="GG6Al1zUWWnjfLum0q8_-455" value="wedata" style="text;html=1;strokeColor=none;fillColor=none;align=center;verticalAlign=middle;whiteSpace=wrap;rounded=0;strokeWidth=2;opacity=50;fontStyle=1" vertex="1" parent="1">
          <mxGeometry x="-3272" y="14134" width="91" height="30" as="geometry" />
        </mxCell>
        <mxCell id="GG6Al1zUWWnjfLum0q8_-459" value="" style="endArrow=classic;html=1;rounded=1;labelBackgroundColor=none;labelBorderColor=none;strokeColor=#000000;strokeWidth=1;fontSize=14;fontColor=#000000;exitX=1;exitY=0.5;exitDx=0;exitDy=0;fontStyle=1" edge="1" parent="1" source="GG6Al1zUWWnjfLum0q8_-433" target="GG6Al1zUWWnjfLum0q8_-435">
          <mxGeometry width="50" height="50" relative="1" as="geometry">
            <mxPoint x="-2705" y="14426" as="sourcePoint" />
            <mxPoint x="-2655" y="14376" as="targetPoint" />
          </mxGeometry>
        </mxCell>
        <mxCell id="GG6Al1zUWWnjfLum0q8_-460" value="&lt;span style=&quot;font-size: 11px;&quot;&gt;2.提交申请/调整资源审批&lt;/span&gt;" style="edgeLabel;html=1;align=center;verticalAlign=middle;resizable=0;points=[];fontSize=14;fontColor=#000000;fontStyle=1" vertex="1" connectable="0" parent="GG6Al1zUWWnjfLum0q8_-459">
          <mxGeometry x="-0.2964" y="-3" relative="1" as="geometry">
            <mxPoint x="25" y="-10" as="offset" />
          </mxGeometry>
        </mxCell>
        <mxCell id="GG6Al1zUWWnjfLum0q8_-461" value="ups tdw \ tdwpriv db" style="rounded=0;whiteSpace=wrap;html=1;fillColor=#1ba1e2;fontColor=#ffffff;strokeColor=#006EAF;fontStyle=1" vertex="1" parent="1">
          <mxGeometry x="-2871" y="14896" width="146" height="51" as="geometry" />
        </mxCell>
        <mxCell id="GG6Al1zUWWnjfLum0q8_-462" value="" style="endArrow=classic;html=1;rounded=1;labelBackgroundColor=none;labelBorderColor=none;strokeColor=#000000;strokeWidth=1;fontSize=14;fontColor=#000000;exitX=0.5;exitY=1;exitDx=0;exitDy=0;fontStyle=1" edge="1" parent="1" source="GG6Al1zUWWnjfLum0q8_-448" target="GG6Al1zUWWnjfLum0q8_-461">
          <mxGeometry width="50" height="50" relative="1" as="geometry">
            <mxPoint x="-2705" y="14683" as="sourcePoint" />
            <mxPoint x="-2655" y="14633" as="targetPoint" />
          </mxGeometry>
        </mxCell>
        <mxCell id="GG6Al1zUWWnjfLum0q8_-463" value="&lt;span style=&quot;font-size: 11px;&quot;&gt;2.查询应用组服务地址&lt;/span&gt;" style="edgeLabel;html=1;align=center;verticalAlign=middle;resizable=0;points=[];fontSize=14;fontColor=#000000;fontStyle=1" vertex="1" connectable="0" parent="GG6Al1zUWWnjfLum0q8_-462">
          <mxGeometry x="-0.3202" y="2" relative="1" as="geometry">
            <mxPoint as="offset" />
          </mxGeometry>
        </mxCell>
        <mxCell id="GG6Al1zUWWnjfLum0q8_-464" value="" style="endArrow=classic;html=1;rounded=1;labelBackgroundColor=none;labelBorderColor=none;strokeColor=#000000;strokeWidth=1;fontSize=14;fontColor=#000000;exitX=0;exitY=0.5;exitDx=0;exitDy=0;entryX=1;entryY=0.5;entryDx=0;entryDy=0;fontStyle=1" edge="1" parent="1" source="GG6Al1zUWWnjfLum0q8_-447" target="GG6Al1zUWWnjfLum0q8_-445">
          <mxGeometry width="50" height="50" relative="1" as="geometry">
            <mxPoint x="-2705" y="14683" as="sourcePoint" />
            <mxPoint x="-2655" y="14633" as="targetPoint" />
            <Array as="points" />
          </mxGeometry>
        </mxCell>
        <mxCell id="GG6Al1zUWWnjfLum0q8_-465" value="&lt;span style=&quot;font-size: 11px;&quot;&gt;1.纳管应用组&lt;/span&gt;" style="edgeLabel;html=1;align=center;verticalAlign=middle;resizable=0;points=[];fontSize=14;fontColor=#000000;fontStyle=1" vertex="1" connectable="0" parent="GG6Al1zUWWnjfLum0q8_-464">
          <mxGeometry x="0.1409" y="-1" relative="1" as="geometry">
            <mxPoint as="offset" />
          </mxGeometry>
        </mxCell>
        <mxCell id="GG6Al1zUWWnjfLum0q8_-472" value="DB" style="rounded=0;whiteSpace=wrap;html=1;fillColor=#60a917;fontColor=#ffffff;strokeColor=#2D7600;fontStyle=1" vertex="1" parent="1">
          <mxGeometry x="-3214" y="14419" width="101.87" height="51.75" as="geometry" />
        </mxCell>
        <mxCell id="GG6Al1zUWWnjfLum0q8_-473" value="" style="endArrow=classic;html=1;rounded=1;labelBackgroundColor=none;labelBorderColor=none;strokeColor=#000000;strokeWidth=1;fontSize=14;fontColor=#000000;exitX=0.5;exitY=1;exitDx=0;exitDy=0;entryX=0.5;entryY=0;entryDx=0;entryDy=0;fontStyle=1" edge="1" parent="1" source="GG6Al1zUWWnjfLum0q8_-434" target="GG6Al1zUWWnjfLum0q8_-472">
          <mxGeometry width="50" height="50" relative="1" as="geometry">
            <mxPoint x="-3338" y="14620" as="sourcePoint" />
            <mxPoint x="-3288" y="14570" as="targetPoint" />
          </mxGeometry>
        </mxCell>
        <mxCell id="GG6Al1zUWWnjfLum0q8_-479" value="持久化" style="edgeLabel;html=1;align=center;verticalAlign=middle;resizable=0;points=[];fontSize=14;fontColor=#000000;fontStyle=1" vertex="1" connectable="0" parent="GG6Al1zUWWnjfLum0q8_-473">
          <mxGeometry x="-0.4796" y="4" relative="1" as="geometry">
            <mxPoint x="-1" y="11" as="offset" />
          </mxGeometry>
        </mxCell>
        <mxCell id="GG6Al1zUWWnjfLum0q8_-476" value="DB" style="rounded=0;whiteSpace=wrap;html=1;fillColor=#60a917;fontColor=#ffffff;strokeColor=#2D7600;fontStyle=1" vertex="1" parent="1">
          <mxGeometry x="-3185" y="14903" width="101.87" height="51.75" as="geometry" />
        </mxCell>
        <mxCell id="GG6Al1zUWWnjfLum0q8_-478" value="&lt;span style=&quot;background-color: rgb(255, 255, 255);&quot;&gt;持久化&lt;/span&gt;" style="endArrow=classic;html=1;rounded=1;labelBackgroundColor=none;labelBorderColor=none;strokeColor=#000000;strokeWidth=1;fontSize=14;fontColor=#000000;exitX=0.5;exitY=1;exitDx=0;exitDy=0;entryX=0.5;entryY=0;entryDx=0;entryDy=0;fontStyle=1" edge="1" parent="1" source="GG6Al1zUWWnjfLum0q8_-446" target="GG6Al1zUWWnjfLum0q8_-476">
          <mxGeometry width="50" height="50" relative="1" as="geometry">
            <mxPoint x="-3339" y="14705" as="sourcePoint" />
            <mxPoint x="-3289" y="14655" as="targetPoint" />
          </mxGeometry>
        </mxCell>
        <mxCell id="GG6Al1zUWWnjfLum0q8_-480" value="" style="rounded=0;whiteSpace=wrap;html=1;dashed=1;strokeColor=#0066CC;fillColor=none;fontStyle=1" vertex="1" parent="1">
          <mxGeometry x="-2899" y="14164" width="199" height="188" as="geometry" />
        </mxCell>
        <mxCell id="GG6Al1zUWWnjfLum0q8_-481" value="" style="rounded=0;whiteSpace=wrap;html=1;dashed=1;strokeColor=#0066CC;fillColor=none;fontStyle=1" vertex="1" parent="1">
          <mxGeometry x="-2905" y="14644" width="210" height="328" as="geometry" />
        </mxCell>
        <mxCell id="GG6Al1zUWWnjfLum0q8_-482" value="" style="rounded=0;whiteSpace=wrap;html=1;dashed=1;strokeColor=#0066CC;fillColor=none;fontStyle=1" vertex="1" parent="1">
          <mxGeometry x="-3989" y="15144" width="188" height="335" as="geometry" />
        </mxCell>
        <mxCell id="GG6Al1zUWWnjfLum0q8_-483" value="wedata" style="text;html=1;strokeColor=none;fillColor=none;align=center;verticalAlign=middle;whiteSpace=wrap;rounded=0;strokeWidth=2;opacity=50;fontStyle=1" vertex="1" parent="1">
          <mxGeometry x="-3989" y="15144" width="91" height="30" as="geometry" />
        </mxCell>
      </root>
    </mxGraphModel>
  </diagram>
</mxfile>
